<?xml version="1.0" encoding="UTF-8" standalone="no"?>
<svg
   viewBox="0 0 440 360"
   height="360"
   width="440"
   xml:space="preserve"
   id="svg2"
   version="1.1"
   sodipodi:docname="cisco_networking_academy.svg"
   inkscape:version="1.2.1 (9c6d41e410, 2022-07-14)"
   xmlns:inkscape="http://www.inkscape.org/namespaces/inkscape"
   xmlns:sodipodi="http://sodipodi.sourceforge.net/DTD/sodipodi-0.dtd"
   xmlns="http://www.w3.org/2000/svg"
   xmlns:svg="http://www.w3.org/2000/svg"
   xmlns:rdf="http://www.w3.org/1999/02/22-rdf-syntax-ns#"
   xmlns:cc="http://creativecommons.org/ns#"
   xmlns:dc="http://purl.org/dc/elements/1.1/"><sodipodi:namedview
     id="namedview36"
     pagecolor="#505050"
     bordercolor="#eeeeee"
     borderopacity="1"
     inkscape:showpageshadow="0"
     inkscape:pageopacity="0"
     inkscape:pagecheckerboard="0"
     inkscape:deskcolor="#505050"
     showgrid="false"
     inkscape:zoom="1.5791667"
     inkscape:cx="145.01319"
     inkscape:cy="240"
     inkscape:window-width="2560"
     inkscape:window-height="1375"
     inkscape:window-x="0"
     inkscape:window-y="0"
     inkscape:window-maximized="1"
     inkscape:current-layer="svg2" /><metadata
     id="metadata8"><rdf:RDF><cc:Work
         rdf:about=""><dc:format>image/svg+xml</dc:format><dc:type
           rdf:resource="http://purl.org/dc/dcmitype/StillImage" /></cc:Work></rdf:RDF></metadata><defs
     id="defs6"><clipPath
       id="clipPath20"
       clipPathUnits="userSpaceOnUse"><path
         id="path18"
         d="M 0,3394.07 C 0,3507.32 95.1172,3600 211.324,3600 H 3388.75 c 116.26,0 211.25,-92.68 211.25,-205.93 V 205.988 C 3600,92.6992 3505.01,0 3388.75,0 H 211.324 C 95.1172,0 0,92.6992 0,205.988 Z" /></clipPath><linearGradient
       id="linearGradient28"
       spreadMethod="pad"
       gradientTransform="matrix(-3477.46,3477.46,3477.46,3477.46,3538.76,61.2701)"
       gradientUnits="userSpaceOnUse"
       y2="0"
       x2="1"
       y1="0"
       x1="0"><stop
         id="stop22"
         offset="0"
         style="stop-opacity:1;stop-color:#62cdf5" /><stop
         id="stop24"
         offset="0.547619"
         style="stop-opacity:1;stop-color:#3f8cd2" /><stop
         id="stop26"
         offset="1"
         style="stop-opacity:1;stop-color:#2b69a0" /></linearGradient></defs><g
     id="g285"
     transform="matrix(0.57952853,0,0,0.57952853,29.516755,116.17369)"><g
       id="g263"
       transform="translate(-198.60004,-92.147374)"><path
         id="path32"
         style="fill:#ffffff;fill-opacity:1;fill-rule:nonzero;stroke:none;stroke-width:0.133333"
         d="m 203.71368,379.83925 29.66093,44.81866 0.18226,0.25987 h 5.67707 v -52.8812 h -4.87813 v 44.80773 l -29.60053,-44.54773 -0.18227,-0.26 h -5.88533 v 52.8812 h 5.026 v -45.07853" /><path
         id="path34"
         style="fill:#ffffff;fill-opacity:1;fill-rule:nonzero;stroke:none;stroke-width:0.133333"
         d="m 263.45221,389.69258 c 7.0312,0 11.5536,4.86133 12.1964,13.056 h -24.5136 c 0.84173,-8.07333 5.52026,-13.056 12.3172,-13.056 z m 0,-4.384 c -10.70254,0 -17.612,7.98667 -17.612,20.348 0,12.3508 7.19586,20.3372 18.33226,20.3372 8.02147,0 14.1928,-4.4796 16.0928,-11.71867 l 0.2,-0.76413 h -5.3464 l -0.12133,0.45107 c -1.36307,4.7052 -5.38173,7.5188 -10.7552,7.5188 -7.79533,0 -12.69067,-5.3308 -13.21147,-14.28827 h 29.89574 v -0.608 c 0,-13.324 -6.528,-21.276 -17.4744,-21.276" /><path
         id="path36"
         style="fill:#ffffff;fill-opacity:1;fill-rule:nonzero;stroke:none;stroke-width:0.133333"
         d="m 290.04127,416.77511 c 0,5.86814 3.33334,9.21867 9.148,9.21867 1.61467,0 3.17734,-0.22547 4.91334,-0.74627 l 0.44266,-0.12146 v -4.39374 l -0.764,0.19227 c -1.788,0.452 -2.96,0.55627 -4.37466,0.55627 -2.82934,0 -4.27067,-1.56307 -4.27067,-4.63654 v -25.8664 h 8.688 v -4.584 h -8.688 v -8.976 h -4.86133 l -0.21734,8.976 h -5.39866 v 4.584 h 5.38266 v 25.7972" /><path
         id="path38"
         style="fill:#ffffff;fill-opacity:1;fill-rule:nonzero;stroke:none;stroke-width:0.133333"
         d="m 333.44261,393.03525 9.87733,31.46533 0.14,0.4172 h 5.564 l 11.12,-38.52387 h -5.07867 l -8.828,31.66547 -9.644,-31.24013 -0.13066,-0.42534 h -5.78934 l -9.45333,31.8228 -9.38267,-31.38813 -0.13066,-0.43467 h -5.22534 l 11.78,38.52387 h 5.72 l 9.46134,-31.88253" /><path
         id="path40"
         style="fill:#ffffff;fill-opacity:1;fill-rule:nonzero;stroke:none;stroke-width:0.133333"
         d="m 380.07327,389.69258 c 7.83867,0 12.51733,5.97333 12.51733,15.964 0,9.99093 -4.67866,15.9612 -12.51733,15.9612 -7.76933,0 -12.59467,-6.1104 -12.59467,-15.9612 0,-9.99067 4.704,-15.964 12.59467,-15.964 z m 0,-4.384 c -10.99733,0 -17.83733,7.796 -17.83733,20.348 0,12.3508 7.03066,20.3372 17.90666,20.3372 10.91067,0 17.69067,-7.7948 17.69067,-20.3372 0,-12.552 -6.80533,-20.348 -17.76,-20.348" /><path
         id="path42"
         style="fill:#ffffff;fill-opacity:1;fill-rule:nonzero;stroke:none;stroke-width:0.133333"
         d="m 409.8906,403.92858 c 0,-8.03867 3.91467,-13.66267 9.51334,-13.66267 1.38,0 2.57066,0.24267 3.932,0.624 l 0.764,0.20934 v -5.036 l -0.40667,-0.14667 c -0.83333,-0.27733 -2.40533,-0.608 -4.08133,-0.608 -4.46,0 -7.90667,2.18 -10.06,6.36267 l -0.42534,-5.27734 h -4.32266 v 38.52387 h 5.08666 v -20.9892" /><path
         id="path44"
         style="fill:#ffffff;fill-opacity:1;fill-rule:nonzero;stroke:none;stroke-width:0.133333"
         d="m 438.60527,403.32191 19.92267,-16.928 h -7.128 l -17.03867,14.488 v -28.84533 h -5.09733 v 52.8812 h 5.09733 v -18.88787 l 19.20933,18.71334 0.17334,0.17453 h 6.988 l -22.12667,-21.59587" /><path
         id="path46"
         style="fill:#ffffff;fill-opacity:1;fill-rule:nonzero;stroke:none;stroke-width:0.133333"
         d="m 469.38527,424.91778 v -38.52387 h -5.08533 v 38.52387 h 5.08533" /><path
         id="path48"
         style="fill:#ffffff;fill-opacity:1;fill-rule:nonzero;stroke:none;stroke-width:0.133333"
         d="m 469.81994,372.03658 h -5.88534 v 6.52667 h 5.88534 v -6.52667" /><path
         id="path50"
         style="fill:#ffffff;fill-opacity:1;fill-rule:nonzero;stroke:none;stroke-width:0.133333"
         d="m 494.47327,385.30858 c -4.87867,0 -9.21067,2.25733 -11.928,6.12 l -0.34667,-5.03467 h -4.41067 v 38.52387 h 5.096 v -23.78387 c 0,-6.97866 5.564,-11.30133 10.72,-11.30133 5.912,0 9.29734,3.36667 9.29734,9.21867 v 25.86653 h 5.09466 v -26.00653 c 0,-8.39467 -5.18133,-13.60267 -13.52266,-13.60267" /><path
         id="path52"
         style="fill:#ffffff;fill-opacity:1;fill-rule:nonzero;stroke:none;stroke-width:0.133333"
         d="m 543.09193,404.64991 c 0,9.1908 -4.384,14.46787 -12.02266,14.46787 -7.25734,0 -11.944,-5.6584 -11.944,-14.39853 0,-9.324 4.47066,-14.88667 11.944,-14.88667 7.52666,0 12.02266,5.53733 12.02266,14.81733 z m 0.40667,-18.256 -0.45867,5.20934 c -2.752,-4.02934 -7.22266,-6.29467 -12.544,-6.29467 -9.94,0 -16.60533,7.796 -16.60533,19.41067 0,12.99333 8.53333,18.91306 16.46667,18.91306 5.16533,0 9.56666,-2.06666 12.37866,-5.74533 v 6.07507 c 0,6.61453 -4.228,10.57346 -11.30266,10.57346 -3.48134,0 -9.49734,-0.9032 -10.59867,-6.89226 l -0.096,-0.50414 h -5.33733 l 0.13866,0.72974 c 1.34534,7.01453 7.196,11.04106 16.04134,11.04106 9.72266,0 16.24,-5.95466 16.24,-14.80826 v -37.70774 h -4.32267" /></g><g
       id="g250"
       transform="translate(173.85089,-162.33804)"><path
         id="path54"
         style="fill:#ffffff;fill-opacity:1;fill-rule:nonzero;stroke:none;stroke-width:0.133333"
         d="m 227.89754,475.87138 h -21.6756 l 10.93813,-27.51613 z m -13.65413,-33.66147 -20.89427,52.0464 -0.33853,0.85213 h 5.55613 l 5.80627,-14.6548 h 25.29533 l 5.8156,14.6548 h 5.7636 l -21.1536,-52.89853 h -5.85053" /><path
         id="path56"
         style="fill:#ffffff;fill-opacity:1;fill-rule:nonzero;stroke:none;stroke-width:0.133333"
         d="m 271.53394,483.40578 c -0.87707,4.9308 -5.13013,8.24693 -10.59,8.24693 -5.85107,0 -12.09227,-4.04427 -12.09227,-15.38133 0,-10.22547 4.54894,-16.3364 12.16147,-16.3364 5.29533,0 9.288,3.01867 10.16453,7.6896 l 0.0959,0.4864 h 5.46827 l -0.1208,-0.712 c -1.27667,-7.23853 -7.4568,-11.90933 -15.74694,-11.90933 -10.48586,0 -17.26506,8.0896 -17.26506,20.62453 0,12.188 6.7448,20.05306 17.18693,20.05306 8.35107,0 14.79173,-5.036 16.0328,-12.55306 l 0.12133,-0.712 h -5.32906 l -0.0871,0.5036" /><path
         id="path58"
         style="fill:#ffffff;fill-opacity:1;fill-rule:nonzero;stroke:none;stroke-width:0.133333"
         d="m 296.47327,491.65271 c -5.63466,0 -8.864,-2.5172 -8.864,-6.92813 0,-3.76667 1.86667,-6.59587 10.97334,-8.1412 l 9.33066,-1.61453 v 6.25053 c 0,6.23173 -5.92,10.43333 -11.44,10.43333 z m 2.07334,-36.16306 c -8.42,0 -14.496,4.54946 -15.104,11.3188 l -0.06,0.6604 h 5.23466 l 0.06,-0.5376 c 0.48667,-4.3588 4.184,-7.06667 9.65334,-7.06667 5.99733,0 9.58266,3.02147 9.58266,8.07347 v 2.70786 l -10.68533,1.788 c -10.27733,1.68387 -14.86133,5.57187 -14.86133,12.5864 0,6.66667 5.26,11.14693 13.09866,11.14693 6.78,0 10.69467,-3.33333 12.752,-6.0776 l 0.468,5.0188 h 4.324 v -26.73706 c 0,-7.8296 -5.67733,-12.88173 -14.46266,-12.88173" /><path
         id="path60"
         style="fill:#ffffff;fill-opacity:1;fill-rule:nonzero;stroke:none;stroke-width:0.133333"
         d="m 336.08127,491.65271 c -7.48266,0 -11.944,-5.78133 -11.944,-15.46933 0,-10.12133 4.46134,-16.18013 11.944,-16.18013 7.52534,0 12.01333,5.91973 12.01333,15.83333 0,11.66666 -6.20666,15.81613 -12.01333,15.81613 z m 11.65733,-30.06933 c -2.752,-3.9068 -7.09999,-6.09373 -12.23066,-6.09373 -8.02933,0 -16.61333,5.43333 -16.61333,20.69373 0,12.1532 6.44,19.98386 16.39733,19.98386 5.356,0 9.88666,-2.43173 12.69866,-6.788 l 0.52134,5.7292 h 4.32266 v -52.89853 h -5.096 v 19.37347" /><path
         id="path62"
         style="fill:#ffffff;fill-opacity:1;fill-rule:nonzero;stroke:none;stroke-width:0.133333"
         d="m 376.69727,459.86458 c 7.03067,0 11.55333,4.86 12.196,13.07347 H 364.3786 c 0.84267,-8.09054 5.52134,-13.07347 12.31867,-13.07347 z m 0,-4.37493 c -10.704,0 -17.62133,7.98546 -17.62133,20.34693 0,12.36133 7.196,20.33066 18.34133,20.33066 8.02,0 14.18267,-4.48026 16.09333,-11.70266 l 0.19867,-0.7624 h -5.34533 l -0.13067,0.43333 c -1.36267,4.7036 -5.38267,7.5172 -10.74667,7.5172 -7.79466,0 -12.69866,-5.32973 -13.212,-14.28813 h 29.896 v -0.60827 c 0,-13.31453 -6.528,-21.26666 -17.47333,-21.26666" /><path
         id="path64"
         style="fill:#ffffff;fill-opacity:1;fill-rule:nonzero;stroke:none;stroke-width:0.133333"
         d="m 439.8466,455.48965 c -5.18266,0 -9.60933,2.4136 -12.1,6.54586 -1.91066,-4.23653 -5.84266,-6.54586 -11.21466,-6.54586 -4.50534,0 -8.49867,2.04946 -11.00667,5.55626 l -0.33867,-4.48026 h -4.40133 v 38.54279 h 5.08667 v -23.80266 c 0,-6.4412 4.30533,-11.30253 10.008,-11.30253 5.52933,0 8.22,2.9692 8.22,9.08013 v 26.02506 h 5.096 v -23.71719 c 0,-6.49227 4.244,-11.388 9.86933,-11.388 5.616,0 8.36,2.9692 8.36,9.08013 v 26.02506 h 5.09467 v -26.23333 c 0,-8.38546 -4.74,-13.38546 -12.67334,-13.38546" /><path
         id="path66"
         style="fill:#ffffff;fill-opacity:1;fill-rule:nonzero;stroke:none;stroke-width:0.133333"
         d="m 474.3426,489.70844 -12.75066,-32.76093 -0.148,-0.38186 h -5.47734 l 15.18934,38.15893 0.15733,0.38386 h 1.06667 c -2.552,7.53334 -3.41867,9.54787 -6.04134,9.54787 -1.084,0 -2.368,-0.24373 -3.45466,-0.62507 l -0.81467,-0.29573 v 4.4796 l 0.416,0.1376 c 1.53733,0.5036 2.83067,0.74787 4.07067,0.74787 6.016,0 7.56933,-4.42814 10.98933,-14.11454 l 13.12533,-37.60266 0.27733,-0.81773 h -5.16533 l -11.44,33.14279" /></g></g><g
     id="g337"
     transform="matrix(1.6765243,0,0,1.6765243,-236.1605,-154.90166)"><path
       id="path68"
       style="fill:#ffffff;fill-opacity:1;fill-rule:nonzero;stroke:none;stroke-width:0.133333"
       d="m 172.78793,162.38886 c 0,2.648 -2.14387,4.784 -4.774,4.784 -2.63853,0 -4.8,-2.136 -4.8,-4.784 v -10.04267 c 0,-2.648 2.16147,-4.792 4.8,-4.792 2.63013,0 4.774,2.144 4.774,4.792 z m 26.36293,-23.224 c 0,-2.648 -2.16147,-4.8 -4.81773,-4.8 -2.62134,0 -4.7828,2.152 -4.7828,4.8 v 23.224 c 0,2.648 2.16146,4.784 4.7828,4.784 2.65626,0 4.81773,-2.136 4.81773,-4.784 z m 26.35373,-18.06 c 0,-2.68667 -2.16145,-4.796 -4.80946,-4.796 -2.64734,0 -4.79107,2.10933 -4.79107,4.796 v 50.84133 c 0,2.63467 2.14373,4.796 4.79107,4.796 2.64801,0 4.80946,-2.16133 4.80946,-4.796 z m 26.32734,18.06 c 0,-2.648 -2.144,-4.8 -4.78267,-4.8 -2.63067,0 -4.7916,2.152 -4.7916,4.8 v 23.224 c 0,2.648 2.16093,4.784 4.7916,4.784 2.63867,0 4.78267,-2.136 4.78267,-4.784 z m 26.328,13.18133 c 0,-2.648 -2.12667,-4.792 -4.75734,-4.792 -2.63866,0 -4.80933,2.144 -4.80933,4.792 v 10.04267 c 0,2.648 2.17067,4.784 4.80933,4.784 2.63067,0 4.75734,-2.136 4.75734,-4.784 z m 26.35333,-13.18133 c 0,-2.648 -2.12667,-4.8 -4.77333,-4.8 -2.648,0 -4.76666,2.152 -4.76666,4.8 v 23.224 c 0,2.648 2.11867,4.784 4.76666,4.784 2.64666,0 4.77333,-2.136 4.77333,-4.784 z m 26.38,-18.06 c 0,-2.68667 -2.136,-4.796 -4.792,-4.796 -2.62133,0 -4.78266,2.10933 -4.78266,4.796 v 50.84133 c 0,2.63467 2.16133,4.796 4.78266,4.796 2.65601,0 4.792,-2.16133 4.792,-4.796 z m 26.36133,18.06 c 0,-2.648 -2.152,-4.8 -4.84267,-4.8 -2.648,0 -4.78266,2.152 -4.78266,4.8 v 23.224 c 0,2.648 2.13466,4.784 4.78266,4.784 2.69067,0 4.84267,-2.136 4.84267,-4.784 z m 26.30267,13.18133 c 0,-2.648 -2.12667,-4.792 -4.77467,-4.792 -2.63867,0 -4.8,2.144 -4.8,4.792 v 10.04267 c 0,2.648 2.16133,4.784 4.8,4.784 2.648,0 4.77467,-2.136 4.77467,-4.784 v -10.04267" /><path
       id="path70"
       style="fill:#ffffff;fill-opacity:1;fill-rule:nonzero;stroke:none;stroke-width:0.133333"
       d="m 235.19207,231.77152 h -9.6792 v -38.29333 h 9.6792 z m 77.91453,-37.59066 c -0.93733,-0.26933 -4.31333,-1.384 -8.81066,-1.384 -11.77867,0 -20.43334,8.39733 -20.43334,19.83867 0,12.32133 9.58267,19.81199 20.43334,19.81199 4.272,0 7.59599,-1.02266 8.81066,-1.35733 v -10.26 c -0.43333,0.22134 -3.58533,2.02267 -8.14266,2.02267 -6.42267,0 -10.58134,-4.55333 -10.58134,-10.21733 0,-5.89467 4.332,-10.204 10.58134,-10.204 4.63599,0 7.74399,1.81866 8.14266,2.02266 z m -100.8744,0 c -0.9032,-0.26933 -4.27093,-1.384 -8.80213,-1.384 -11.7792,0 -20.3812,8.39733 -20.3812,19.83867 0,12.32133 9.5312,19.81199 20.3812,19.81199 4.3052,0 7.60413,-1.02266 8.80213,-1.35733 v -10.26 c -0.4344,0.22134 -3.55946,2.02267 -8.09906,2.02267 -6.45,0 -10.58947,-4.55333 -10.58947,-10.21733 0,-5.89467 4.32187,-10.204 10.58947,-10.204 4.60946,0 7.71666,1.81866 8.09906,2.02266 z m 131.25573,-1.384 c -11.77866,0 -20.22533,8.888 -20.22533,19.83867 0,10.93333 8.44667,19.81199 20.22533,19.81199 11.77067,0 20.23467,-8.87866 20.23467,-19.81199 0,-10.95067 -8.464,-19.83867 -20.23467,-19.83867 m 9.97467,19.83867 c 0,5.54666 -4.25333,10.05599 -9.97467,10.05599 -5.74666,0 -9.97333,-4.50933 -9.97333,-10.05599 0,-5.58267 4.22667,-10.08267 9.97333,-10.08267 5.72134,0 9.97467,4.5 9.97467,10.08267 m -81.64,-18.62 c -0.26933,-0.0907 -4.71333,-1.224 -9.40933,-1.224 -8.91467,0 -14.296,4.83066 -14.296,11.97066 0,6.34134 4.50533,9.51734 9.86933,11.21467 0.63334,0.16533 1.50134,0.452 2.1,0.64667 2.388,0.76533 4.30667,1.86666 4.30667,3.824 0,2.16266 -2.24933,3.55466 -7.05733,3.55466 -4.184,0 -8.24667,-1.184 -9.10667,-1.41067 v 8.81467 c 0.47733,0.11333 5.26933,1.04133 10.42533,1.04133 7.41334,0 15.84134,-3.224 15.84134,-12.86799 0,-4.63067 -2.83867,-8.92267 -9.10534,-10.932 l -2.67333,-0.82934 c -1.58,-0.52533 -4.42667,-1.30266 -4.42667,-3.672 0,-1.84 2.10934,-3.14266 5.98934,-3.14266 3.33333,0 7.404,1.15866 7.54266,1.18933 v -8.17733" /></g></svg>
