<?xml version="1.0" encoding="UTF-8" standalone="no"?>
<svg
   width="440"
   height="360"
   viewBox="0 0 440 360"
   version="1.1"
   preserveAspectRatio="xMidYMid"
   id="svg18"
   sodipodi:docname="codepen.svg"
   inkscape:version="1.2.1 (9c6d41e410, 2022-07-14)"
   xmlns:inkscape="http://www.inkscape.org/namespaces/inkscape"
   xmlns:sodipodi="http://sodipodi.sourceforge.net/DTD/sodipodi-0.dtd"
   xmlns="http://www.w3.org/2000/svg"
   xmlns:svg="http://www.w3.org/2000/svg">
  <defs
     id="defs22" />
  <sodipodi:namedview
     id="namedview20"
     pagecolor="#505050"
     bordercolor="#eeeeee"
     borderopacity="1"
     inkscape:showpageshadow="0"
     inkscape:pageopacity="0"
     inkscape:pagecheckerboard="0"
     inkscape:deskcolor="#505050"
     showgrid="false"
     inkscape:zoom="2.3769531"
     inkscape:cx="256"
     inkscape:cy="147.24733"
     inkscape:window-width="2560"
     inkscape:window-height="1375"
     inkscape:window-x="0"
     inkscape:window-y="0"
     inkscape:window-maximized="1"
     inkscape:current-layer="svg18" />
  <g
     transform="matrix(0.78241363,0,0,0.78241363,17.484747,136.20285)"
     fill="#cccccc"
     id="g16">
    <path
       d="m 32.132971,23.899961 c 5.738874,0 10.998058,2.07534 15.086602,5.504 L 52.77701,22.780272 C 47.189748,18.084039 39.989437,15.248155 32.135456,15.248155 14.415534,15.248155 0,29.663689 0,47.382369 c 0,17.721165 14.415534,32.136699 32.136699,32.131728 7.853981,0 15.054291,-2.835883 20.641553,-7.532116 l -5.557436,-6.62369 c -4.083573,3.431146 -9.346486,5.504 -15.08536,5.504 C 19.187573,70.862291 8.6530485,60.32901 8.6530485,47.382369 8.6518058,34.435728 19.187573,23.897476 32.136699,23.899961 h -0.0037 z"
       id="path2" />
    <path
       d="m 210.01072,17.103534 h -17.30237 c -2.38851,0 -4.32466,1.937398 -4.32466,4.32466 v 51.907107 c 0,2.386019 1.93864,4.32466 4.32466,4.32466 h 17.30237 c 16.69716,0 30.27883,-13.582912 30.27883,-30.278835 0,-16.698408 -13.58042,-30.28132 -30.28256,-30.277592 h 0.004 z m 0,51.907107 H 197.03425 V 25.75534 h 12.97647 c 11.92637,0 21.6233,9.705631 21.6233,21.628272 0.005,11.931339 -9.69693,21.624543 -21.62703,21.627029 h 0.004 z"
       id="path4" />
    <path
       d="m 263.71231,21.429437 v 51.907107 c 0,2.386019 1.93864,4.32466 4.32466,4.32466 H 304.0845 V 69.010641 H 272.36412 V 51.707029 h 20.18547 V 43.056466 H 272.36412 V 25.75534 h 31.72038 v -8.650563 h -36.04753 c -2.38726,-0.005 -4.31969,1.93367 -4.31969,4.32466 h -0.005 z"
       id="path6" />
    <path
       d="m 394.64885,21.429437 v 51.907107 c 0,2.386019 1.93865,4.32466 4.32466,4.32466 h 36.0463 V 69.010641 H 403.29942 V 51.707029 h 20.18672 V 43.056466 H 403.29942 V 25.75534 h 31.72039 v -8.650563 h -36.04505 c -2.38851,-0.005 -4.32466,1.93367 -4.32466,4.32466 h -0.001 z"
       id="path8" />
    <path
       d="M 353.48256,17.103534 H 334.7374 c -2.38851,0 -4.32466,1.937398 -4.32466,4.32466 v 56.23301 h 8.6518 V 51.707029 h 14.41927 c 9.54035,0 17.30236,-7.762019 17.30236,-17.301126 -0.001,-9.539107 -7.76326,-17.306097 -17.30734,-17.302369 h 0.004 z m 0,25.952932 H 339.0633 V 25.75534 h 14.41926 c 4.7708,0 8.64932,3.877281 8.64932,8.650563 0,4.773281 -3.87852,8.654291 -8.65305,8.650563 h 0.004 z"
       id="path10" />
    <path
       d="M 502.64979,17.103534 V 61.389049 L 467.04342,18.659417 c -1.16567,-1.400543 -3.08319,-1.92 -4.79565,-1.29864 -1.71247,0.621359 -2.85328,2.246835 -2.85328,4.067417 v 56.23301 h 8.6518 V 33.376932 l 35.60637,42.728388 c 0.83884,1.006602 2.06291,1.553398 3.31806,1.553398 0.49211,0 0.99045,-0.08202 1.47262,-0.257242 1.71247,-0.621359 2.85328,-2.246835 2.85328,-4.067418 v -56.23301 h -8.64683 v 0.0025 z"
       id="path12" />
    <path
       d="m 163.80893,32.635029 c -0.0211,-0.111845 -0.0398,-0.223689 -0.0696,-0.333048 -0.0186,-0.06586 -0.041,-0.128 -0.0621,-0.192622 -0.0311,-0.09693 -0.0634,-0.193864 -0.1019,-0.28831 -0.0273,-0.06586 -0.0584,-0.129243 -0.0882,-0.192622 -0.0422,-0.08948 -0.0857,-0.177709 -0.13546,-0.263456 -0.0348,-0.06338 -0.0746,-0.123029 -0.11309,-0.183922 -0.0534,-0.08202 -0.10811,-0.162797 -0.16776,-0.241088 -0.0435,-0.05841 -0.0882,-0.11433 -0.13546,-0.170252 -0.0621,-0.07456 -0.12924,-0.145398 -0.19635,-0.214991 -0.0522,-0.05219 -0.10439,-0.104388 -0.15907,-0.155339 -0.0721,-0.06586 -0.14664,-0.128 -0.22493,-0.187651 -0.0597,-0.04598 -0.11806,-0.0932 -0.18019,-0.135456 -0.0224,-0.01615 -0.0423,-0.0348 -0.0659,-0.04971 L 119.936,1.9088155 c -1.33095,-0.8885437 -3.06703,-0.8885437 -4.39798,0 L 73.362641,30.02532 c -0.02361,0.01491 -0.04225,0.03355 -0.06586,0.04971 -0.06214,0.0435 -0.120544,0.08948 -0.180194,0.135456 -0.07705,0.06089 -0.152855,0.12303 -0.224933,0.186408 -0.05468,0.04971 -0.106873,0.101903 -0.157825,0.15534 -0.06959,0.06959 -0.134213,0.140427 -0.197592,0.21499 -0.04722,0.05592 -0.09196,0.111845 -0.135456,0.173981 -0.05965,0.07829 -0.11433,0.157825 -0.167767,0.241087 -0.03852,0.06089 -0.07705,0.120544 -0.113088,0.183923 -0.04971,0.08575 -0.0932,0.17398 -0.134213,0.26097 -0.02983,0.06338 -0.06214,0.128 -0.08823,0.192622 -0.03852,0.09445 -0.07208,0.191378 -0.103146,0.288311 -0.02113,0.06462 -0.0435,0.128 -0.06089,0.186407 -0.02858,0.109359 -0.04971,0.219961 -0.06959,0.333049 -0.01118,0.05717 -0.02485,0.113087 -0.03231,0.171495 -0.02237,0.171495 -0.0348,0.34299 -0.0348,0.518214 V 61.44 c 0,0.173981 0.01243,0.347961 0.03728,0.518214 0.0087,0.06214 0.02486,0.111844 0.03728,0.171495 0.01988,0.111844 0.03728,0.223689 0.07456,0.335534 0.0174,0.06214 0.03728,0.124272 0.06214,0.192621 0.03107,0.09942 0.06214,0.198835 0.09942,0.289553 0.0261,0.06214 0.06214,0.124272 0.08699,0.186408 0.04101,0.08699 0.08699,0.173981 0.136699,0.264699 0.0348,0.06214 0.07456,0.124272 0.111844,0.181437 0.05344,0.08699 0.111845,0.161554 0.173981,0.236117 0.04349,0.06214 0.08699,0.111844 0.136699,0.171495 0.06338,0.07456 0.124272,0.149126 0.198835,0.21499 0.05095,0.04971 0.09942,0.111845 0.161553,0.149126 0.07208,0.06214 0.149127,0.124272 0.22369,0.188894 0.05965,0.04971 0.124272,0.08699 0.17398,0.135456 0.02361,0.01243 0.03728,0.03728 0.06214,0.04847 l 42.164192,28.131417 c 0.6661,0.447379 1.42913,0.671068 2.19961,0.66734 0.77049,-0.0037 1.53352,-0.223689 2.19961,-0.66734 l 42.17538,-28.116505 c 0.0236,-0.01491 0.0435,-0.03231 0.0659,-0.04847 0.0621,-0.04349 0.12055,-0.08947 0.1802,-0.135456 0.0771,-0.06089 0.15285,-0.124272 0.22493,-0.188893 0.0547,-0.04847 0.10687,-0.101903 0.15907,-0.154097 0.0683,-0.06959 0.13421,-0.140427 0.19635,-0.21499 0.0472,-0.05592 0.092,-0.111845 0.13545,-0.171496 0.0597,-0.07829 0.11434,-0.159068 0.16777,-0.241087 0.0385,-0.05965 0.077,-0.120544 0.11309,-0.181437 0.0497,-0.08699 0.0932,-0.175223 0.13546,-0.264699 0.0298,-0.06338 0.0609,-0.126757 0.0882,-0.191379 0.0385,-0.09569 0.0708,-0.192621 0.1019,-0.289553 0.0211,-0.06462 0.0435,-0.128 0.0621,-0.192621 0.0286,-0.10936 0.0485,-0.221204 0.0696,-0.333049 0.01,-0.05716 0.0249,-0.113087 0.0311,-0.171495 0.0224,-0.171495 0.0348,-0.34299 0.0348,-0.518214 V 33.324738 c 0,-0.175223 -0.0137,-0.346719 -0.0348,-0.518214 -0.01,-0.06089 -0.0286,-0.110602 -0.041,-0.171495 h 0.006 z m -46.07254,24.128621 -14.02408,-9.380038 14.02408,-9.381282 14.02532,9.381282 z M 113.77212,31.113942 96.58035,42.612816 82.702913,33.329709 113.77212,12.61732 Z M 89.448388,47.382369 79.52901,54.017243 V 40.747495 Z m 7.131962,4.774524 17.19177,11.497631 V 82.151146 L 82.702913,61.436272 96.58035,52.154408 v 0.0025 z m 25.12155,11.495146 17.19177,-11.497631 13.87868,9.281864 -31.07045,20.712388 z m 24.32373,-16.267185 9.92062,-6.636116 v 13.27099 l -9.92062,-6.637359 v 0.0025 z M 138.89367,42.612816 121.7019,31.115184 V 12.61732 l 31.07045,20.712389 z"
       id="path14" />
  </g>
</svg>
