<?xml version="1.0" encoding="UTF-8" standalone="no"?>
<svg
   width="440"
   height="360"
   viewBox="0 0 440 360"
   version="1.1"
   id="svg62"
   sodipodi:docname="css-tricks.svg"
   inkscape:version="1.2.1 (9c6d41e410, 2022-07-14)"
   xmlns:inkscape="http://www.inkscape.org/namespaces/inkscape"
   xmlns:sodipodi="http://sodipodi.sourceforge.net/DTD/sodipodi-0.dtd"
   xmlns="http://www.w3.org/2000/svg"
   xmlns:svg="http://www.w3.org/2000/svg">
  <defs
     id="defs66">
    <filter
       inkscape:collect="always"
       style="color-interpolation-filters:sRGB"
       id="filter940"
       x="-0.0021362757"
       y="-0.016061655"
       width="1.0042726"
       height="1.0321233">
      <feGaussianBlur
         inkscape:collect="always"
         stdDeviation="0.28256606"
         id="feGaussianBlur942" />
    </filter>
  </defs>
  <sodipodi:namedview
     id="namedview64"
     pagecolor="#505050"
     bordercolor="#eeeeee"
     borderopacity="1"
     inkscape:showpageshadow="0"
     inkscape:pageopacity="0"
     inkscape:pagecheckerboard="0"
     inkscape:deskcolor="#505050"
     showgrid="false"
     inkscape:zoom="4.595722"
     inkscape:cx="346.73551"
     inkscape:cy="195.61671"
     inkscape:window-width="2560"
     inkscape:window-height="1375"
     inkscape:window-x="0"
     inkscape:window-y="0"
     inkscape:window-maximized="1"
     inkscape:current-layer="svg62" />
  <g
     id="g261"
     transform="matrix(1.2788555,0,0,1.2788555,-534.11817,147.37093)"
     style="fill:#081b4b;filter:url(#filter940);opacity:1;fill-opacity:1">
    <path
       d="m 447.758,33.361 -9.518,7.0378 c -1.143,0.7672 -2.031,1.2791 -3.173,1.2791 -2.286,0 -4.19,-2.0475 -4.19,-4.347 0,-1.9192 1.524,-3.3265 2.92,-3.9666 l 11.17,-4.8621 -11.172,-4.9925 c -1.523,-0.6401 -2.92,-2.0475 -2.92,-3.9666 0,-2.3029 2.032,-4.2221 4.313,-4.2221 1.143,0 1.904,0.3837 3.046,1.2791 l 9.524,7.0378 -1.27,-11.3869 c -0.381,-2.68752 1.401,-4.86211 3.935,-4.86211 2.533,0 4.312,2.04635 3.935,4.73381 l -1.27,11.5152 9.517,-7.0378 c 1.143,-0.8954 2.032,-1.2791 3.174,-1.2791 1.108,0.01 2.168,0.458 2.951,1.2476 0.784,0.7896 1.228,1.8578 1.238,2.9745 0,2.0474 -1.396,3.3265 -2.92,3.9666 l -11.168,4.9892 11.17,4.8621 c 1.524,0.6401 2.92,2.0474 2.92,4.0949 0,2.3028 -2.031,4.222 -4.312,4.222 -1.016,0 -1.905,-0.5119 -3.047,-1.2791 l -9.52,-7.0378 1.267,11.3869 c 0.377,2.6897 -1.397,4.8632 -3.935,4.8632 -2.539,0 -4.313,-2.0474 -3.935,-4.7338 z"
       fill="#081b4b"
       id="path239"
       style="fill:#081b4b;fill-opacity:1" />
    <path
       d="m 506.589,36.9974 c 0.463,-0.4177 1.062,-0.6469 1.682,-0.6439 0.686,0.0027 1.344,0.2766 1.834,0.7637 0.491,0.487 0.776,1.1491 0.795,1.846 -0.003,0.3817 -0.085,0.7585 -0.24,1.106 -0.156,0.3475 -0.381,0.6579 -0.662,0.911 -2.977,2.661 -6.364,4.3077 -11.46,4.3077 -9.201,0 -16.058,-7.3048 -16.058,-16.5241 v -0.0911 c 0,-9.1225 6.728,-16.5925 16.26,-16.5925 4.872,0 8.079,1.4644 10.826,3.6182 0.338,0.2642 0.612,0.6043 0.8,0.9937 0.187,0.3895 0.284,0.8177 0.282,1.2513 -0.022,0.5114 -0.178,1.0074 -0.454,1.4359 -0.275,0.4286 -0.659,0.7738 -1.111,0.9994 -0.452,0.2256 -0.956,0.3233 -1.458,0.2828 -0.501,-0.0405 -0.984,-0.2177 -1.395,-0.513 -2.084,-1.8586 -4.762,-2.8851 -7.535,-2.8888 -5.994,0 -10.418,5.0541 -10.418,11.3218 v 0.0912 c 0,6.3076 4.379,11.3959 10.418,11.3959 3.341,0 5.595,-1.0997 7.894,-3.0712 z"
       fill="#081b4b"
       id="path241"
       style="fill:#081b4b;fill-opacity:1" />
    <path
       d="m 521.396,21.0887 c 0,2.4729 1.441,3.5726 7.535,5.0427 6.672,1.6467 10.131,4.0797 10.114,9.3959 v 0.0912 c 0,6.0056 -4.648,9.5839 -11.28,9.5839 -4.28,0.0055 -8.444,-1.4112 -11.858,-4.0341 -0.337,-0.245 -0.611,-0.5684 -0.799,-0.9432 -0.188,-0.3747 -0.285,-0.7899 -0.283,-1.2107 0.019,-0.4913 0.168,-0.9684 0.432,-1.3805 0.264,-0.412 0.633,-0.7437 1.068,-0.9599 0.434,-0.2162 0.919,-0.3087 1.401,-0.2678 0.482,0.0408 0.944,0.2136 1.337,0.5 2.471,2.1287 5.604,3.2977 8.842,3.2991 3.443,0 5.607,-1.6524 5.607,-4.0341 V 36.08 c 0,-2.2963 -1.262,-3.5327 -7.126,-4.9059 -6.722,-1.6524 -10.507,-3.6695 -10.507,-9.584 v -0.0912 c 0,-5.5042 4.508,-9.3047 10.776,-9.3047 3.559,-0.0723 7.054,0.9679 10.013,2.98 0.381,0.2306 0.694,0.5602 0.908,0.9548 0.214,0.3946 0.32,0.8399 0.309,1.2902 -0.002,0.3464 -0.071,0.6891 -0.203,1.0084 -0.132,0.3192 -0.325,0.6087 -0.568,0.8518 -0.243,0.2431 -0.531,0.4349 -0.846,0.5645 -0.317,0.1296 -0.655,0.1944 -0.996,0.1907 -0.511,0.0025 -1.012,-0.1417 -1.446,-0.416 -2.462,-1.6068 -4.805,-2.4273 -7.289,-2.4273 -3.246,0 -5.141,1.6923 -5.141,3.8062 z"
       fill="#081b4b"
       id="path243"
       style="fill:#081b4b;fill-opacity:1" />
    <path
       d="m 549.362,21.0887 c 0,2.4729 1.441,3.5726 7.53,5.0427 6.677,1.6467 10.103,4.0797 10.091,9.3959 v 0.0912 c 0,6.0056 -4.642,9.5839 -11.275,9.5839 -4.281,0.0042 -8.446,-1.4123 -11.863,-4.0341 -0.336,-0.246 -0.609,-0.5696 -0.797,-0.9441 -0.188,-0.3746 -0.286,-0.7892 -0.285,-1.2098 0.02,-0.4915 0.17,-0.9683 0.435,-1.3801 0.264,-0.4118 0.634,-0.7432 1.069,-0.9592 0.435,-0.2161 0.919,-0.3086 1.401,-0.2679 0.482,0.0407 0.945,0.2131 1.339,0.499 2.469,2.1274 5.599,3.2963 8.836,3.2991 3.443,0 5.607,-1.6524 5.607,-4.0341 V 36.08 c 0,-2.2963 -1.262,-3.5327 -7.126,-4.9059 -6.723,-1.6524 -10.513,-3.6695 -10.513,-9.584 v -0.0912 c 0,-5.5042 4.514,-9.3047 10.782,-9.3047 3.569,-0.0782 7.074,0.9623 10.041,2.98 0.381,0.2306 0.694,0.5602 0.908,0.9548 0.214,0.3946 0.32,0.8399 0.309,1.2902 -0.002,0.3464 -0.071,0.6891 -0.203,1.0084 -0.132,0.3192 -0.325,0.6087 -0.568,0.8518 -0.146,0.1461 -0.308,0.2737 -0.483,0.3804 -0.116,0.0708 -0.238,0.1324 -0.364,0.1841 -0.316,0.1296 -0.654,0.1944 -0.995,0.1907 -0.511,0.0025 -1.012,-0.1417 -1.446,-0.416 -2.462,-1.6068 -4.811,-2.4273 -7.289,-2.4273 -3.246,0 -5.141,1.6923 -5.141,3.8062 z"
       fill="#081b4b"
       id="path245"
       style="fill:#081b4b;fill-opacity:1" />
    <path
       d="m 573.986,27.9661 h 8.483 c 0.69,0.0321 1.342,0.3334 1.819,0.8412 0.478,0.5078 0.744,1.183 0.744,1.8853 0,0.7023 -0.266,1.3775 -0.744,1.8853 -0.477,0.5078 -1.129,0.8091 -1.819,0.8412 h -8.483 c -0.69,-0.0321 -1.342,-0.3334 -1.819,-0.8412 -0.478,-0.5078 -0.744,-1.183 -0.744,-1.8853 0,-0.7023 0.266,-1.3775 0.744,-1.8853 0.477,-0.5078 1.129,-0.8091 1.819,-0.8412 z"
       fill="#081b4b"
       id="path247"
       style="fill:#081b4b;fill-opacity:1" />
    <path
       d="m 587.066,12.65 h 20.958 c 0.661,0.0314 1.285,0.3204 1.742,0.8068 0.456,0.4866 0.711,1.1332 0.711,1.8057 0,0.6725 -0.255,1.3192 -0.711,1.8057 -0.457,0.4865 -1.081,0.7755 -1.742,0.8068 h -7.687 v 24.3018 c 0,0.7556 -0.295,1.4802 -0.821,2.0145 -0.526,0.5343 -1.239,0.8345 -1.982,0.8345 -0.743,0 -1.457,-0.3002 -1.982,-0.8345 -0.526,-0.5343 -0.822,-1.2589 -0.822,-2.0145 V 17.875 h -7.664 c -0.347,0.0165 -0.695,-0.0388 -1.021,-0.1626 -0.326,-0.1239 -0.624,-0.3137 -0.876,-0.5579 -0.252,-0.2442 -0.452,-0.5378 -0.589,-0.863 -0.089,-0.2116 -0.15,-0.4338 -0.182,-0.6606 -0.017,-0.1217 -0.025,-0.2448 -0.025,-0.3684 0,-0.3537 0.07,-0.7038 0.207,-1.0289 0.137,-0.3252 0.337,-0.6189 0.589,-0.8631 0.252,-0.2442 0.55,-0.4339 0.876,-0.5578 0.326,-0.1238 0.674,-0.1792 1.021,-0.1627 z"
       fill="#081b4b"
       id="path249"
       style="fill:#081b4b;fill-opacity:1" />
    <path
       fill-rule="evenodd"
       clip-rule="evenodd"
       d="m 618.547,12.65 h 11.275 c 3.992,0 7.081,1.1909 9.106,3.208 0.862,0.9225 1.537,2.0088 1.987,3.1967 0.449,1.1879 0.663,2.4541 0.631,3.7263 v 0.0912 c 0,5.1395 -2.932,8.2563 -7.171,9.5839 l 6.044,7.7492 c 0.551,0.5811 0.872,1.3476 0.903,2.1538 -0.006,0.3495 -0.08,0.6944 -0.217,1.0149 -0.137,0.3206 -0.334,0.6106 -0.582,0.8535 -0.247,0.2428 -0.539,0.4338 -0.859,0.562 -0.32,0.1282 -0.662,0.191 -1.006,0.185 -0.536,0.0073 -1.066,-0.1237 -1.54,-0.3808 -0.473,-0.257 -0.875,-0.6318 -1.168,-1.0893 l -7.664,-9.9486 h -6.991 v 8.6267 c -0.095,0.6791 -0.429,1.3005 -0.939,1.7501 -0.509,0.4495 -1.162,0.697 -1.836,0.697 -0.676,0 -1.328,-0.2475 -1.838,-0.697 -0.51,-0.4496 -0.843,-1.071 -0.938,-1.7501 V 15.499 c -0.006,-0.3758 0.063,-0.7491 0.201,-1.0975 0.139,-0.3484 0.345,-0.665 0.607,-0.9308 0.261,-0.2657 0.573,-0.4754 0.916,-0.6164 0.343,-0.141 0.71,-0.2104 1.079,-0.2043 z m 10.872,15.903 c 3.969,0 6.492,-2.1082 6.492,-5.3618 v -0.0854 c 0,-3.4416 -2.433,-5.3219 -6.537,-5.3219 H 621.3 V 28.553 Z"
       fill="#081b4b"
       id="path251"
       style="fill:#081b4b;fill-opacity:1" />
    <path
       d="m 649.95,12.617 c 0.341,-0.137 0.705,-0.2033 1.071,-0.1949 0.361,-0.0015 0.719,0.0697 1.052,0.2096 0.334,0.1398 0.637,0.3455 0.892,0.6051 0.255,0.2597 0.457,0.5681 0.594,0.9075 0.136,0.3394 0.206,0.703 0.204,1.0698 v 26.9627 c -0.033,0.7254 -0.339,1.4102 -0.855,1.912 -0.516,0.5017 -1.203,0.7817 -1.918,0.7817 -0.714,0 -1.401,-0.28 -1.918,-0.7817 -0.516,-0.5018 -0.822,-1.1866 -0.854,-1.912 v -26.957 c -0.002,-0.3722 0.07,-0.7409 0.211,-1.0845 0.141,-0.3435 0.348,-0.6548 0.61,-0.9156 0.261,-0.2608 0.571,-0.4657 0.911,-0.6027 z"
       fill="#081b4b"
       id="path253"
       style="fill:#081b4b;fill-opacity:1" />
    <path
       d="m 684.476,36.9974 c 0.462,-0.4191 1.062,-0.6486 1.682,-0.6439 0.691,0.0014 1.353,0.2777 1.846,0.7698 0.493,0.4921 0.776,1.1608 0.789,1.8627 -0.003,0.3817 -0.085,0.7585 -0.241,1.106 -0.155,0.3475 -0.381,0.6579 -0.662,0.911 -2.977,2.661 -6.358,4.3077 -11.454,4.3077 -9.206,0 -16.058,-7.3048 -16.058,-16.5241 v -0.0911 c 0,-9.1225 6.695,-16.5925 16.26,-16.5925 4.872,0 8.073,1.4644 10.826,3.6182 0.336,0.266 0.609,0.6064 0.796,0.9954 0.188,0.3891 0.285,0.8164 0.286,1.2496 0.002,0.3657 -0.069,0.7281 -0.207,1.0657 -0.138,0.3376 -0.342,0.6437 -0.598,0.9001 -0.257,0.2565 -0.561,0.4582 -0.896,0.5932 -0.334,0.1351 -0.692,0.2007 -1.052,0.1931 -0.607,0.0055 -1.199,-0.195 -1.682,-0.5698 -2.082,-1.8582 -4.758,-2.8848 -7.529,-2.8888 -5.999,0 -10.423,5.0541 -10.423,11.3218 v 0.0912 c 0,6.3076 4.379,11.3959 10.423,11.3959 3.335,0 5.589,-1.0997 7.894,-3.0712 z"
       fill="#081b4b"
       id="path255"
       style="fill:#081b4b;fill-opacity:1" />
    <path
       d="m 718.979,17.1457 -9.834,9.6238 10.675,13.4358 c 0.487,0.556 0.758,1.273 0.763,2.0171 0,0.3699 -0.072,0.7362 -0.214,1.077 -0.084,0.2015 -0.191,0.3917 -0.318,0.5666 -0.089,0.1208 -0.187,0.2343 -0.294,0.3393 -0.261,0.257 -0.571,0.4576 -0.911,0.5898 -0.34,0.1322 -0.703,0.1932 -1.067,0.1794 -0.469,-0.0036 -0.931,-0.127 -1.341,-0.359 -0.411,-0.232 -0.757,-0.5651 -1.008,-0.9686 l -10.148,-13.1623 -5.141,5.0427 v 6.6438 c -0.033,0.7254 -0.339,1.4102 -0.855,1.912 -0.516,0.5017 -1.203,0.7817 -1.918,0.7817 -0.714,0 -1.401,-0.28 -1.918,-0.7817 -0.516,-0.5018 -0.822,-1.1866 -0.854,-1.912 v -26.957 c 0.032,-0.7254 0.338,-1.4102 0.854,-1.9119 0.517,-0.5018 1.204,-0.7818 1.918,-0.7818 0.715,0 1.402,0.28 1.918,0.7818 0.516,0.5017 0.822,1.1865 0.855,1.9119 V 28.7866 L 715.11,13.5047 c 0.277,-0.3434 0.627,-0.619 1.023,-0.8064 0.396,-0.1874 0.828,-0.2818 1.265,-0.2762 0.339,-0.0046 0.675,0.0597 0.989,0.1892 0.314,0.1295 0.599,0.3214 0.839,0.5646 0.239,0.2432 0.429,0.5326 0.557,0.8514 0.128,0.3187 0.192,0.6602 0.188,1.0045 -0.003,0.4047 -0.093,0.8038 -0.264,1.1691 -0.172,0.3653 -0.42,0.6878 -0.728,0.9448 z"
       fill="#081b4b"
       id="path257"
       style="fill:#081b4b;fill-opacity:1" />
    <path
       d="m 730.658,21.0887 c 0,2.4729 1.441,3.5726 7.529,5.0427 h 0.017 c 6.677,1.6467 10.103,4.0797 10.12,9.3959 v 0.0912 c 0,6.0056 -4.642,9.5839 -11.275,9.5839 -4.28,0.0055 -8.444,-1.4112 -11.858,-4.0341 -0.337,-0.2447 -0.612,-0.568 -0.801,-0.9427 -0.189,-0.3747 -0.287,-0.79 -0.286,-1.2112 0.02,-0.4915 0.169,-0.9683 0.435,-1.3801 0.264,-0.4118 0.633,-0.7432 1.068,-0.9592 0.435,-0.2161 0.919,-0.3086 1.402,-0.2679 0.482,0.0407 0.945,0.2131 1.339,0.499 2.468,2.1274 5.599,3.2963 8.836,3.2991 3.442,0 5.606,-1.6524 5.606,-4.0341 V 36.08 c 0,-2.2963 -1.261,-3.5327 -7.126,-4.9059 -6.722,-1.6524 -10.512,-3.6695 -10.512,-9.584 v -0.0912 c 0,-5.5042 4.513,-9.3047 10.781,-9.3047 3.56,-0.0723 7.055,0.9679 10.014,2.98 0.377,0.2328 0.687,0.5633 0.898,0.9577 0.211,0.3944 0.315,0.8387 0.301,1.2873 -10e-4,0.3464 -0.07,0.6891 -0.202,1.0084 -0.132,0.3192 -0.325,0.6087 -0.569,0.8518 -0.242,0.2431 -0.53,0.4349 -0.846,0.5645 -0.316,0.1296 -0.654,0.1944 -0.995,0.1907 -0.511,0.0025 -1.013,-0.1417 -1.447,-0.416 -2.461,-1.6068 -4.804,-2.4273 -7.288,-2.4273 -3.246,0 -5.141,1.6923 -5.141,3.8062 z"
       fill="#081b4b"
       id="path259"
       style="fill:#081b4b;fill-opacity:1" />
  </g>
  <g
     id="g237"
     transform="matrix(1.2788555,0,0,1.2788555,-534.69245,146.73144)"
     style="stroke-width:1.00011299;stroke-dasharray:none;fill:#fffffe;fill-opacity:1">
    <path
       d="m 447.758,33.361 -9.518,7.0378 c -1.143,0.7672 -2.031,1.2791 -3.173,1.2791 -2.286,0 -4.19,-2.0475 -4.19,-4.347 0,-1.9192 1.524,-3.3265 2.92,-3.9666 l 11.17,-4.8621 -11.172,-4.9925 c -1.523,-0.6401 -2.92,-2.0475 -2.92,-3.9666 0,-2.3029 2.032,-4.2221 4.313,-4.2221 1.143,0 1.904,0.3837 3.046,1.2791 l 9.524,7.0378 -1.27,-11.3869 c -0.381,-2.68752 1.401,-4.86211 3.935,-4.86211 2.533,0 4.312,2.04635 3.935,4.73381 l -1.27,11.5152 9.517,-7.0378 c 1.143,-0.8954 2.032,-1.2791 3.174,-1.2791 1.108,0.01 2.168,0.458 2.951,1.2476 0.784,0.7896 1.228,1.8578 1.238,2.9745 0,2.0474 -1.396,3.3265 -2.92,3.9666 l -11.168,4.9892 11.17,4.8621 c 1.524,0.6401 2.92,2.0474 2.92,4.0949 0,2.3028 -2.031,4.222 -4.312,4.222 -1.016,0 -1.905,-0.5119 -3.047,-1.2791 l -9.52,-7.0378 1.267,11.3869 c 0.377,2.6897 -1.397,4.8632 -3.935,4.8632 -2.539,0 -4.313,-2.0474 -3.935,-4.7338 z"
       fill="#081b4b"
       id="path40"
       style="stroke-width:1.00011299;stroke-dasharray:none;fill:#fffffe;fill-opacity:1" />
    <path
       d="m 506.589,36.9974 c 0.463,-0.4177 1.062,-0.6469 1.682,-0.6439 0.686,0.0027 1.344,0.2766 1.834,0.7637 0.491,0.487 0.776,1.1491 0.795,1.846 -0.003,0.3817 -0.085,0.7585 -0.24,1.106 -0.156,0.3475 -0.381,0.6579 -0.662,0.911 -2.977,2.661 -6.364,4.3077 -11.46,4.3077 -9.201,0 -16.058,-7.3048 -16.058,-16.5241 v -0.0911 c 0,-9.1225 6.728,-16.5925 16.26,-16.5925 4.872,0 8.079,1.4644 10.826,3.6182 0.338,0.2642 0.612,0.6043 0.8,0.9937 0.187,0.3895 0.284,0.8177 0.282,1.2513 -0.022,0.5114 -0.178,1.0074 -0.454,1.4359 -0.275,0.4286 -0.659,0.7738 -1.111,0.9994 -0.452,0.2256 -0.956,0.3233 -1.458,0.2828 -0.501,-0.0405 -0.984,-0.2177 -1.395,-0.513 -2.084,-1.8586 -4.762,-2.8851 -7.535,-2.8888 -5.994,0 -10.418,5.0541 -10.418,11.3218 v 0.0912 c 0,6.3076 4.379,11.3959 10.418,11.3959 3.341,0 5.595,-1.0997 7.894,-3.0712 z"
       fill="#081b4b"
       id="path42"
       style="stroke-width:1.00011299;stroke-dasharray:none;fill:#fffffe;fill-opacity:1" />
    <path
       d="m 521.396,21.0887 c 0,2.4729 1.441,3.5726 7.535,5.0427 6.672,1.6467 10.131,4.0797 10.114,9.3959 v 0.0912 c 0,6.0056 -4.648,9.5839 -11.28,9.5839 -4.28,0.0055 -8.444,-1.4112 -11.858,-4.0341 -0.337,-0.245 -0.611,-0.5684 -0.799,-0.9432 -0.188,-0.3747 -0.285,-0.7899 -0.283,-1.2107 0.019,-0.4913 0.168,-0.9684 0.432,-1.3805 0.264,-0.412 0.633,-0.7437 1.068,-0.9599 0.434,-0.2162 0.919,-0.3087 1.401,-0.2678 0.482,0.0408 0.944,0.2136 1.337,0.5 2.471,2.1287 5.604,3.2977 8.842,3.2991 3.443,0 5.607,-1.6524 5.607,-4.0341 V 36.08 c 0,-2.2963 -1.262,-3.5327 -7.126,-4.9059 -6.722,-1.6524 -10.507,-3.6695 -10.507,-9.584 v -0.0912 c 0,-5.5042 4.508,-9.3047 10.776,-9.3047 3.559,-0.0723 7.054,0.9679 10.013,2.98 0.381,0.2306 0.694,0.5602 0.908,0.9548 0.214,0.3946 0.32,0.8399 0.309,1.2902 -0.002,0.3464 -0.071,0.6891 -0.203,1.0084 -0.132,0.3192 -0.325,0.6087 -0.568,0.8518 -0.243,0.2431 -0.531,0.4349 -0.846,0.5645 -0.317,0.1296 -0.655,0.1944 -0.996,0.1907 -0.511,0.0025 -1.012,-0.1417 -1.446,-0.416 -2.462,-1.6068 -4.805,-2.4273 -7.289,-2.4273 -3.246,0 -5.141,1.6923 -5.141,3.8062 z"
       fill="#081b4b"
       id="path44"
       style="stroke-width:1.00011299;stroke-dasharray:none;fill:#fffffe;fill-opacity:1" />
    <path
       d="m 549.362,21.0887 c 0,2.4729 1.441,3.5726 7.53,5.0427 6.677,1.6467 10.103,4.0797 10.091,9.3959 v 0.0912 c 0,6.0056 -4.642,9.5839 -11.275,9.5839 -4.281,0.0042 -8.446,-1.4123 -11.863,-4.0341 -0.336,-0.246 -0.609,-0.5696 -0.797,-0.9441 -0.188,-0.3746 -0.286,-0.7892 -0.285,-1.2098 0.02,-0.4915 0.17,-0.9683 0.435,-1.3801 0.264,-0.4118 0.634,-0.7432 1.069,-0.9592 0.435,-0.2161 0.919,-0.3086 1.401,-0.2679 0.482,0.0407 0.945,0.2131 1.339,0.499 2.469,2.1274 5.599,3.2963 8.836,3.2991 3.443,0 5.607,-1.6524 5.607,-4.0341 V 36.08 c 0,-2.2963 -1.262,-3.5327 -7.126,-4.9059 -6.723,-1.6524 -10.513,-3.6695 -10.513,-9.584 v -0.0912 c 0,-5.5042 4.514,-9.3047 10.782,-9.3047 3.569,-0.0782 7.074,0.9623 10.041,2.98 0.381,0.2306 0.694,0.5602 0.908,0.9548 0.214,0.3946 0.32,0.8399 0.309,1.2902 -0.002,0.3464 -0.071,0.6891 -0.203,1.0084 -0.132,0.3192 -0.325,0.6087 -0.568,0.8518 -0.146,0.1461 -0.308,0.2737 -0.483,0.3804 -0.116,0.0708 -0.238,0.1324 -0.364,0.1841 -0.316,0.1296 -0.654,0.1944 -0.995,0.1907 -0.511,0.0025 -1.012,-0.1417 -1.446,-0.416 -2.462,-1.6068 -4.811,-2.4273 -7.289,-2.4273 -3.246,0 -5.141,1.6923 -5.141,3.8062 z"
       fill="#081b4b"
       id="path46"
       style="stroke-width:1.00011299;stroke-dasharray:none;fill:#fffffe;fill-opacity:1" />
    <path
       d="m 573.986,27.9661 h 8.483 c 0.69,0.0321 1.342,0.3334 1.819,0.8412 0.478,0.5078 0.744,1.183 0.744,1.8853 0,0.7023 -0.266,1.3775 -0.744,1.8853 -0.477,0.5078 -1.129,0.8091 -1.819,0.8412 h -8.483 c -0.69,-0.0321 -1.342,-0.3334 -1.819,-0.8412 -0.478,-0.5078 -0.744,-1.183 -0.744,-1.8853 0,-0.7023 0.266,-1.3775 0.744,-1.8853 0.477,-0.5078 1.129,-0.8091 1.819,-0.8412 z"
       fill="#081b4b"
       id="path48"
       style="stroke-width:1.00011299;stroke-dasharray:none;fill:#fffffe;fill-opacity:1" />
    <path
       d="m 587.066,12.65 h 20.958 c 0.661,0.0314 1.285,0.3204 1.742,0.8068 0.456,0.4866 0.711,1.1332 0.711,1.8057 0,0.6725 -0.255,1.3192 -0.711,1.8057 -0.457,0.4865 -1.081,0.7755 -1.742,0.8068 h -7.687 v 24.3018 c 0,0.7556 -0.295,1.4802 -0.821,2.0145 -0.526,0.5343 -1.239,0.8345 -1.982,0.8345 -0.743,0 -1.457,-0.3002 -1.982,-0.8345 -0.526,-0.5343 -0.822,-1.2589 -0.822,-2.0145 V 17.875 h -7.664 c -0.347,0.0165 -0.695,-0.0388 -1.021,-0.1626 -0.326,-0.1239 -0.624,-0.3137 -0.876,-0.5579 -0.252,-0.2442 -0.452,-0.5378 -0.589,-0.863 -0.089,-0.2116 -0.15,-0.4338 -0.182,-0.6606 -0.017,-0.1217 -0.025,-0.2448 -0.025,-0.3684 0,-0.3537 0.07,-0.7038 0.207,-1.0289 0.137,-0.3252 0.337,-0.6189 0.589,-0.8631 0.252,-0.2442 0.55,-0.4339 0.876,-0.5578 0.326,-0.1238 0.674,-0.1792 1.021,-0.1627 z"
       fill="#081b4b"
       id="path50"
       style="stroke-width:1.00011299;stroke-dasharray:none;fill:#fffffe;fill-opacity:1" />
    <path
       fill-rule="evenodd"
       clip-rule="evenodd"
       d="m 618.547,12.65 h 11.275 c 3.992,0 7.081,1.1909 9.106,3.208 0.862,0.9225 1.537,2.0088 1.987,3.1967 0.449,1.1879 0.663,2.4541 0.631,3.7263 v 0.0912 c 0,5.1395 -2.932,8.2563 -7.171,9.5839 l 6.044,7.7492 c 0.551,0.5811 0.872,1.3476 0.903,2.1538 -0.006,0.3495 -0.08,0.6944 -0.217,1.0149 -0.137,0.3206 -0.334,0.6106 -0.582,0.8535 -0.247,0.2428 -0.539,0.4338 -0.859,0.562 -0.32,0.1282 -0.662,0.191 -1.006,0.185 -0.536,0.0073 -1.066,-0.1237 -1.54,-0.3808 -0.473,-0.257 -0.875,-0.6318 -1.168,-1.0893 l -7.664,-9.9486 h -6.991 v 8.6267 c -0.095,0.6791 -0.429,1.3005 -0.939,1.7501 -0.509,0.4495 -1.162,0.697 -1.836,0.697 -0.676,0 -1.328,-0.2475 -1.838,-0.697 -0.51,-0.4496 -0.843,-1.071 -0.938,-1.7501 V 15.499 c -0.006,-0.3758 0.063,-0.7491 0.201,-1.0975 0.139,-0.3484 0.345,-0.665 0.607,-0.9308 0.261,-0.2657 0.573,-0.4754 0.916,-0.6164 0.343,-0.141 0.71,-0.2104 1.079,-0.2043 z m 10.872,15.903 c 3.969,0 6.492,-2.1082 6.492,-5.3618 v -0.0854 c 0,-3.4416 -2.433,-5.3219 -6.537,-5.3219 H 621.3 V 28.553 Z"
       fill="#081b4b"
       id="path52"
       style="stroke-width:1.00011299;stroke-dasharray:none;fill:#fffffe;fill-opacity:1" />
    <path
       d="m 649.95,12.617 c 0.341,-0.137 0.705,-0.2033 1.071,-0.1949 0.361,-0.0015 0.719,0.0697 1.052,0.2096 0.334,0.1398 0.637,0.3455 0.892,0.6051 0.255,0.2597 0.457,0.5681 0.594,0.9075 0.136,0.3394 0.206,0.703 0.204,1.0698 v 26.9627 c -0.033,0.7254 -0.339,1.4102 -0.855,1.912 -0.516,0.5017 -1.203,0.7817 -1.918,0.7817 -0.714,0 -1.401,-0.28 -1.918,-0.7817 -0.516,-0.5018 -0.822,-1.1866 -0.854,-1.912 v -26.957 c -0.002,-0.3722 0.07,-0.7409 0.211,-1.0845 0.141,-0.3435 0.348,-0.6548 0.61,-0.9156 0.261,-0.2608 0.571,-0.4657 0.911,-0.6027 z"
       fill="#081b4b"
       id="path54"
       style="stroke-width:1.00011299;stroke-dasharray:none;fill:#fffffe;fill-opacity:1" />
    <path
       d="m 684.476,36.9974 c 0.462,-0.4191 1.062,-0.6486 1.682,-0.6439 0.691,0.0014 1.353,0.2777 1.846,0.7698 0.493,0.4921 0.776,1.1608 0.789,1.8627 -0.003,0.3817 -0.085,0.7585 -0.241,1.106 -0.155,0.3475 -0.381,0.6579 -0.662,0.911 -2.977,2.661 -6.358,4.3077 -11.454,4.3077 -9.206,0 -16.058,-7.3048 -16.058,-16.5241 v -0.0911 c 0,-9.1225 6.695,-16.5925 16.26,-16.5925 4.872,0 8.073,1.4644 10.826,3.6182 0.336,0.266 0.609,0.6064 0.796,0.9954 0.188,0.3891 0.285,0.8164 0.286,1.2496 0.002,0.3657 -0.069,0.7281 -0.207,1.0657 -0.138,0.3376 -0.342,0.6437 -0.598,0.9001 -0.257,0.2565 -0.561,0.4582 -0.896,0.5932 -0.334,0.1351 -0.692,0.2007 -1.052,0.1931 -0.607,0.0055 -1.199,-0.195 -1.682,-0.5698 -2.082,-1.8582 -4.758,-2.8848 -7.529,-2.8888 -5.999,0 -10.423,5.0541 -10.423,11.3218 v 0.0912 c 0,6.3076 4.379,11.3959 10.423,11.3959 3.335,0 5.589,-1.0997 7.894,-3.0712 z"
       fill="#081b4b"
       id="path56"
       style="stroke-width:1.00011299;stroke-dasharray:none;fill:#fffffe;fill-opacity:1" />
    <path
       d="m 718.979,17.1457 -9.834,9.6238 10.675,13.4358 c 0.487,0.556 0.758,1.273 0.763,2.0171 0,0.3699 -0.072,0.7362 -0.214,1.077 -0.084,0.2015 -0.191,0.3917 -0.318,0.5666 -0.089,0.1208 -0.187,0.2343 -0.294,0.3393 -0.261,0.257 -0.571,0.4576 -0.911,0.5898 -0.34,0.1322 -0.703,0.1932 -1.067,0.1794 -0.469,-0.0036 -0.931,-0.127 -1.341,-0.359 -0.411,-0.232 -0.757,-0.5651 -1.008,-0.9686 l -10.148,-13.1623 -5.141,5.0427 v 6.6438 c -0.033,0.7254 -0.339,1.4102 -0.855,1.912 -0.516,0.5017 -1.203,0.7817 -1.918,0.7817 -0.714,0 -1.401,-0.28 -1.918,-0.7817 -0.516,-0.5018 -0.822,-1.1866 -0.854,-1.912 v -26.957 c 0.032,-0.7254 0.338,-1.4102 0.854,-1.9119 0.517,-0.5018 1.204,-0.7818 1.918,-0.7818 0.715,0 1.402,0.28 1.918,0.7818 0.516,0.5017 0.822,1.1865 0.855,1.9119 V 28.7866 L 715.11,13.5047 c 0.277,-0.3434 0.627,-0.619 1.023,-0.8064 0.396,-0.1874 0.828,-0.2818 1.265,-0.2762 0.339,-0.0046 0.675,0.0597 0.989,0.1892 0.314,0.1295 0.599,0.3214 0.839,0.5646 0.239,0.2432 0.429,0.5326 0.557,0.8514 0.128,0.3187 0.192,0.6602 0.188,1.0045 -0.003,0.4047 -0.093,0.8038 -0.264,1.1691 -0.172,0.3653 -0.42,0.6878 -0.728,0.9448 z"
       fill="#081b4b"
       id="path58"
       style="stroke-width:1.00011299;stroke-dasharray:none;fill:#fffffe;fill-opacity:1" />
    <path
       d="m 730.658,21.0887 c 0,2.4729 1.441,3.5726 7.529,5.0427 h 0.017 c 6.677,1.6467 10.103,4.0797 10.12,9.3959 v 0.0912 c 0,6.0056 -4.642,9.5839 -11.275,9.5839 -4.28,0.0055 -8.444,-1.4112 -11.858,-4.0341 -0.337,-0.2447 -0.612,-0.568 -0.801,-0.9427 -0.189,-0.3747 -0.287,-0.79 -0.286,-1.2112 0.02,-0.4915 0.169,-0.9683 0.435,-1.3801 0.264,-0.4118 0.633,-0.7432 1.068,-0.9592 0.435,-0.2161 0.919,-0.3086 1.402,-0.2679 0.482,0.0407 0.945,0.2131 1.339,0.499 2.468,2.1274 5.599,3.2963 8.836,3.2991 3.442,0 5.606,-1.6524 5.606,-4.0341 V 36.08 c 0,-2.2963 -1.261,-3.5327 -7.126,-4.9059 -6.722,-1.6524 -10.512,-3.6695 -10.512,-9.584 v -0.0912 c 0,-5.5042 4.513,-9.3047 10.781,-9.3047 3.56,-0.0723 7.055,0.9679 10.014,2.98 0.377,0.2328 0.687,0.5633 0.898,0.9577 0.211,0.3944 0.315,0.8387 0.301,1.2873 -10e-4,0.3464 -0.07,0.6891 -0.202,1.0084 -0.132,0.3192 -0.325,0.6087 -0.569,0.8518 -0.242,0.2431 -0.53,0.4349 -0.846,0.5645 -0.316,0.1296 -0.654,0.1944 -0.995,0.1907 -0.511,0.0025 -1.013,-0.1417 -1.447,-0.416 -2.461,-1.6068 -4.804,-2.4273 -7.288,-2.4273 -3.246,0 -5.141,1.6923 -5.141,3.8062 z"
       fill="#081b4b"
       id="path60"
       style="stroke-width:1.00011299;stroke-dasharray:none;fill:#fffffe;fill-opacity:1" />
  </g>
</svg>
