<?xml version="1.0" encoding="UTF-8" standalone="no"?>
<svg
   height="360"
   viewBox="0 0 311.12698 254.55844"
   width="440"
   version="1.1"
   id="svg52"
   sodipodi:docname="duckduckgo.svg"
   inkscape:version="1.2.1 (9c6d41e410, 2022-07-14)"
   xmlns:inkscape="http://www.inkscape.org/namespaces/inkscape"
   xmlns:sodipodi="http://sodipodi.sourceforge.net/DTD/sodipodi-0.dtd"
   xmlns="http://www.w3.org/2000/svg"
   xmlns:svg="http://www.w3.org/2000/svg">
  <defs
     id="defs56" />
  <sodipodi:namedview
     id="namedview54"
     pagecolor="#505050"
     bordercolor="#eeeeee"
     borderopacity="1"
     inkscape:showpageshadow="0"
     inkscape:pageopacity="0"
     inkscape:pagecheckerboard="0"
     inkscape:deskcolor="#505050"
     showgrid="false"
     inkscape:zoom="2.3137972"
     inkscape:cx="177.84618"
     inkscape:cy="159.47811"
     inkscape:window-width="2560"
     inkscape:window-height="1375"
     inkscape:window-x="0"
     inkscape:window-y="0"
     inkscape:window-maximized="1"
     inkscape:current-layer="svg52" />
  <circle
     cx="156.03563"
     cy="96.710258"
     fill="#de5833"
     r="84.927704"
     id="circle2"
     style="stroke-width:1.41546" />
  <path
     d="m 227.94108,66.277829 c -3.96329,-9.342048 -9.62514,-17.693272 -16.70245,-24.77058 -7.21886,-7.218855 -15.57007,-12.739157 -24.77058,-16.702449 -9.62514,-4.104839 -19.81646,-6.086486 -30.43242,-6.086486 -10.47442,0 -20.80729,2.123193 -30.43243,6.086486 -9.34205,3.821747 -17.69327,9.483594 -24.77058,16.702449 -7.218852,7.218854 -12.739152,15.570078 -16.702445,24.77058 -4.104839,9.625138 -6.086485,19.816463 -6.086485,30.432426 0,10.615945 2.123193,20.807275 6.086485,30.432415 3.963293,9.34204 9.62514,17.69327 16.702445,24.77058 7.21886,7.21886 15.57007,12.73916 24.77058,16.70245 9.62514,4.10484 19.81647,6.08648 30.43243,6.08648 10.47441,0 20.80728,-2.12319 30.43242,-6.08648 9.20051,-3.96329 17.55172,-9.62514 24.77058,-16.70245 7.21885,-7.21885 12.73916,-15.57008 16.70245,-24.77058 4.10484,-9.62514 6.08649,-19.81647 6.08649,-30.432415 0,-10.615963 -1.98165,-20.807288 -6.08649,-30.432426 z M 173.02116,166.7756 c -4.52947,-7.64349 -16.41935,-29.01696 -16.41935,-44.87014 0,-36.518899 24.48749,-5.23721 24.48749,-34.395706 0,-6.935762 -3.39711,-31.281704 -24.62904,-36.377367 -5.2372,-6.935762 -17.55172,-13.588432 -37.08509,-10.899055 0,0 3.25556,0.990824 6.93576,2.830924 0,0 -7.07731,0.990823 -7.3604,5.803393 0,0 14.01307,-0.70773 21.93966,1.8401 -18.25946,2.406285 -27.60151,12.031425 -25.90295,29.441604 2.40628,24.770577 12.88069,68.932977 16.5609,84.361507 -27.74305,-9.90823 -47.701057,-36.51891 -47.701057,-67.800605 0,-39.774474 32.272517,-72.188548 72.188547,-72.188548 39.91602,0 72.18854,32.272528 72.18854,72.188548 -0.14155,33.971065 -23.63821,62.421855 -55.20301,70.065345 z"
     fill="#ffffff"
     id="path4"
     style="stroke-width:1.41546" />
  <path
     clip-rule="evenodd"
     d="m 152.07233,108.45857 c 0,-9.34203 12.73916,-12.3145 17.55173,-12.3145 13.02224,0 31.42325,-8.351224 35.95273,-8.209678 4.67102,0.141547 7.64349,1.981647 7.64349,4.10484 0,3.114015 -26.04449,14.862338 -36.09428,13.871518 -9.62513,-0.84928 -11.88987,0.14154 -11.88987,4.10483 0,3.39712 6.93576,6.51113 14.57925,6.51113 11.46524,0 22.64739,-5.09567 26.0445,-2.68938 2.97246,2.12319 -7.78504,9.76669 -20.09956,9.76669 -12.31451,0 -33.68799,-5.8034 -33.68799,-15.14545 z"
     fill="#fed30a"
     fill-rule="evenodd"
     id="path6"
     style="stroke-width:1.41546" />
  <path
     d="m 174.71972,68.825659 c -3.39711,-4.387931 -9.48359,-4.529477 -11.60678,0.566185 3.25555,-2.547831 7.21885,-3.114015 11.60678,-0.566185 z"
     fill="#2d4f8d"
     id="path8"
     style="stroke-width:1.41546" />
  <path
     d="m 136.9269,68.967206 c -4.67103,-2.830924 -12.45607,-3.114017 -12.03143,5.803393 2.26474,-5.520302 5.37875,-6.511125 12.03143,-5.803393 z"
     fill="#2d4f8d"
     id="path10"
     style="stroke-width:1.41546" />
  <path
     d="m 171.8888,77.176884 c -2.54784,0 -4.67103,2.123192 -4.67103,4.671023 0,2.547832 2.12319,4.671024 4.67103,4.671024 2.54783,0 4.67102,-2.123192 4.67102,-4.671024 0,-2.547831 -2.12319,-4.671023 -4.67102,-4.671023 z m 1.69855,4.387931 c -0.70773,0 -1.41546,-0.566185 -1.41546,-1.415462 0,-0.707731 0.56619,-1.415462 1.41546,-1.415462 0.84928,0 1.41546,0.566185 1.41546,1.415462 -0.14154,0.707731 -0.70772,1.415462 -1.41546,1.415462 z"
     fill="#2d4f8d"
     id="path12"
     style="stroke-width:1.41546" />
  <path
     d="m 135.65297,79.724714 c -2.97247,0 -5.37875,2.406285 -5.37875,5.378755 0,2.97247 2.40628,5.378755 5.37875,5.378755 2.97248,0 5.37876,-2.406285 5.37876,-5.378755 0,-2.97247 -2.40628,-5.378755 -5.37876,-5.378755 z m 1.98165,4.954117 c -0.84927,0 -1.557,-0.707732 -1.557,-1.557009 0,-0.849276 0.70773,-1.557007 1.557,-1.557007 0.84928,0 1.55701,0.707731 1.55701,1.557007 0,0.849277 -0.70773,1.557009 -1.55701,1.557009 z"
     fill="#2d4f8d"
     id="path14"
     style="stroke-width:1.41546" />
  <path
     d="m 123.90464,56.794235 c -6.79421,4.954116 -9.90823,12.597609 -8.9174,23.355118 2.40628,24.770577 12.88069,69.074527 16.5609,84.503057 1.27392,0.42463 2.54783,0.84928 3.82174,1.27391 -2.26473,-9.34205 -13.16379,-54.91991 -17.97636,-89.881806 -1.27392,-9.342047 2.40629,-14.862348 6.51112,-19.250279 z"
     fill="#d5d7d8"
     id="path16"
     style="stroke-width:1.41546" />
  <path
     d="m 140.74864,50.707749 c 0.56618,0 0.99083,-0.141545 0.99083,-0.141545 -7.36041,-3.538655 -18.96719,-3.680202 -22.08121,-3.680202 -0.28309,0.566185 -0.56619,1.273917 -0.56619,1.981647 -0.14154,0.141546 13.58843,-0.70773 21.65657,1.8401 z"
     fill="#d5d7d8"
     id="path18"
     style="stroke-width:1.41546" />
  <path
     d="m 127.4433,43.064256 c -2.26473,-1.557007 -4.10484,-2.547831 -5.23721,-3.114016 -0.99083,0.141547 -1.84009,0.141547 -2.83092,0.283092 0,0 3.25556,0.990824 6.93576,2.830924 0,0 -0.14154,0 -0.2831,0 0.99083,0 1.41547,0 1.41547,0 z"
     fill="#d5d7d8"
     id="path20"
     style="stroke-width:1.41546" />
  <path
     d="m 184.48641,137.19245 c -2.40628,-0.56618 -11.74833,6.08649 -15.28699,8.63431 -0.14155,-0.70773 -0.28309,-1.27391 -0.42464,-1.557 -0.42464,-1.41547 -9.48359,-0.56619 -11.60678,1.69855 -5.66185,-2.68937 -16.98555,-7.92659 -17.12709,-4.67103 -0.42464,4.24639 0,21.93966 2.26473,23.21358 1.69856,0.99083 11.3237,-4.24639 16.13627,-6.93577 0,0 0,0 0.14155,0 2.97246,0.70774 8.49277,0 10.47441,-1.27391 0.28309,-0.14154 0.42465,-0.42463 0.56619,-0.70773 4.38793,1.69855 13.87152,5.09567 15.85317,4.38793 2.54783,-0.70773 1.98164,-22.0812 -0.99082,-22.78893 z"
     fill="#67bd47"
     id="path22"
     style="stroke-width:1.41546" />
  <path
     d="m 158.58346,157.57509 c -2.97247,-0.56617 -1.98165,-3.53864 -1.98165,-10.47441 0,0 0,0 0,0 -0.70773,0.42464 -1.27391,0.99083 -1.27391,1.55701 0,6.93576 -1.13237,10.04978 1.98164,10.47442 2.97247,0.70773 8.49277,0 10.75751,-1.27392 0.42464,-0.2831 0.56619,-0.70773 0.70773,-1.41546 -2.12319,1.27391 -7.3604,1.8401 -10.19132,1.13236 z"
     fill="#43a347"
     id="path24"
     style="stroke-width:1.41546" />
  <path
     d="m 10.950804,240.52115 v -34.82036 h 12.59761 c 12.031424,0 17.551725,8.77586 17.551725,16.98555 0,8.9174 -5.378755,17.83481 -17.551725,17.83481 z m 3.963293,-4.10484 h 8.634317 c 9.342047,0 13.446886,-6.93576 13.446886,-13.87152 0,-6.36958 -4.246385,-13.16379 -13.446886,-13.16379 h -8.634317 z"
     fill="#4c4c4c"
     id="path26"
     style="fill:#fffffe;fill-opacity:1;stroke-width:1.41546" />
  <path
     d="m 56.95331,240.94579 c -6.511124,0 -10.615962,-4.38793 -10.615962,-11.32369 v -13.58843 h 3.821746 v 13.44688 c 0,4.95412 2.830924,7.92659 7.643493,7.92659 4.529477,0 7.785039,-3.53865 7.785039,-8.20968 v -13.16379 h 3.821747 v 24.48748 h -3.397108 l -0.283092,-4.24638 -0.566185,0.70773 c -2.123192,2.54783 -4.81257,3.82175 -8.209678,3.96329 z"
     fill="#4c4c4c"
     id="path28"
     style="fill:#fffffe;fill-opacity:1;stroke-width:1.41546" />
  <path
     d="m 87.668829,240.94579 c -6.369578,0 -12.739155,-3.96329 -12.739155,-12.5976 0,-7.6435 5.095662,-12.59761 12.739155,-12.59761 3.397109,0 6.228032,1.13236 8.775863,3.53864 l -2.406285,2.40629 c -1.698554,-1.55701 -3.963293,-2.40629 -6.228031,-2.40629 -5.378755,0 -9.058955,3.68021 -9.058955,9.05897 0,6.22802 4.529477,9.05895 9.058955,9.05895 2.54783,0 4.81257,-0.84928 6.511123,-2.54783 l 2.406285,2.40628 c -2.547831,2.40629 -5.661846,3.6802 -9.058955,3.6802 z"
     fill="#4c4c4c"
     id="path30"
     style="fill:#fffffe;fill-opacity:1;stroke-width:1.41546" />
  <polygon
     fill="#4c4c4c"
     points="88.5,156 91.1,156 91.1,170.9 98.5,163.3 102,163.3 93.8,171.4 103,180.5 103,180.6 99.6,180.6 91.1,172.1 91.1,180.6 88.5,180.6 "
     id="polygon32"
     transform="matrix(1.4154617,0,0,1.4154617,-23.728007,-15.111221)"
     style="fill:#fffffe;fill-opacity:1" />
  <path
     d="m 126.59402,240.52115 v -34.82036 h 12.59761 c 12.03143,0 17.55172,8.77586 17.55172,16.98555 0,8.9174 -5.37874,17.83481 -17.55172,17.83481 z m 4.10484,-4.10484 h 8.63432 c 9.34205,0 13.44688,-6.93576 13.44688,-13.87152 0,-6.36958 -4.24638,-13.16379 -13.44688,-13.16379 h -8.63432 z"
     fill="#4c4c4c"
     id="path34"
     style="fill:#fffffe;fill-opacity:1;stroke-width:1.41546" />
  <path
     d="m 172.59653,240.94579 c -6.51113,0 -10.61596,-4.38793 -10.61596,-11.32369 v -13.58843 h 3.82174 v 13.44688 c 0,4.95412 2.83093,7.92659 7.6435,7.92659 4.52947,0 7.78504,-3.53865 7.78504,-8.20968 v -13.16379 h 3.82174 v 24.48748 h -3.39711 l -0.14154,-4.24638 -0.56619,0.70773 c -2.12319,2.54783 -4.95412,3.82175 -8.35122,3.96329 z"
     fill="#4c4c4c"
     id="path36"
     style="fill:#fffffe;fill-opacity:1;stroke-width:1.41546" />
  <path
     d="m 203.31205,240.94579 c -6.36958,0 -12.73916,-3.96329 -12.73916,-12.5976 0,-7.6435 5.09567,-12.59761 12.73916,-12.59761 3.3971,0 6.22803,1.13236 8.77586,3.53864 l -2.40629,2.40629 c -1.69855,-1.55701 -3.96329,-2.40629 -6.22802,-2.40629 -5.37876,0 -9.05897,3.68021 -9.05897,9.05897 0,6.22802 4.52949,9.05895 9.05897,9.05895 2.54782,0 4.81257,-0.84928 6.51112,-2.54783 l 2.40628,2.40628 -0.14154,0.14155 v 0 c -2.40629,2.40629 -5.37876,3.53865 -8.91741,3.53865 z"
     fill="#4c4c4c"
     id="path38"
     style="fill:#fffffe;fill-opacity:1;stroke-width:1.41546" />
  <polygon
     fill="#4c4c4c"
     points="170.3,156 172.9,156 172.9,170.9 180.3,163.3 183.7,163.3 175.6,171.4 184.7,180.5 184.7,180.6 181.3,180.6 172.9,172.1 172.9,180.6 170.3,180.6 "
     id="polygon40"
     transform="matrix(1.4154617,0,0,1.4154617,-23.728007,-15.111221)"
     style="fill:#fffffe;fill-opacity:1" />
  <path
     d="m 257.38269,241.08734 c -13.44689,0 -18.11791,-9.62514 -18.11791,-17.69327 0,-5.37876 1.8401,-10.04978 5.09566,-13.44689 3.25556,-3.25556 7.78503,-4.95411 13.02225,-4.95411 4.81257,0 9.20049,1.84009 12.59761,5.09566 l -2.26475,2.68938 c -2.68937,-2.54784 -6.65266,-4.10485 -10.33286,-4.10485 -9.76669,0 -14.15462,7.6435 -14.15462,14.72081 0,6.93576 4.38793,14.01307 14.29616,14.01307 3.53866,0 6.93576,-1.27392 9.62514,-3.53865 l 0.14155,-0.14156 v -8.63431 h -10.89906 v -3.53865 h 14.57926 v 13.58843 c -3.82175,4.10484 -8.20968,5.94494 -13.58843,5.94494 z"
     fill="#4c4c4c"
     id="path42"
     style="fill:#fffffe;fill-opacity:1;stroke-width:1.41546" />
  <path
     d="m 288.23975,240.94579 c -7.3604,0 -12.59761,-5.23721 -12.59761,-12.5976 0,-7.36041 5.37875,-12.88071 12.59761,-12.88071 7.50195,0 12.73916,5.23721 12.73916,12.88071 -0.14155,7.21885 -5.37876,12.5976 -12.73916,12.5976 z m 0,-22.0812 c -5.23721,0 -8.91741,3.82175 -8.91741,9.34205 0,5.2372 3.6802,9.05895 8.91741,9.05895 5.23721,0 8.91741,-3.6802 9.05895,-9.05895 -0.14154,-5.37876 -3.82174,-9.34205 -9.05895,-9.34205 z"
     fill="#4c4c4c"
     id="path44"
     style="fill:#fffffe;fill-opacity:1;stroke-width:1.41546" />
</svg>
