<?xml version="1.0" encoding="UTF-8" standalone="no"?>
<!-- Created with Inkscape (http://www.inkscape.org/) -->

<svg
   version="1.1"
   id="svg2"
   width="440"
   height="360"
   viewBox="0 0 440 360"
   sodipodi:docname="github.svg"
   inkscape:version="1.2.1 (9c6d41e410, 2022-07-14)"
   xmlns:inkscape="http://www.inkscape.org/namespaces/inkscape"
   xmlns:sodipodi="http://sodipodi.sourceforge.net/DTD/sodipodi-0.dtd"
   xmlns="http://www.w3.org/2000/svg"
   xmlns:svg="http://www.w3.org/2000/svg">
  <defs
     id="defs6" />
  <sodipodi:namedview
     id="namedview4"
     pagecolor="#505050"
     bordercolor="#eeeeee"
     borderopacity="1"
     inkscape:showpageshadow="0"
     inkscape:pageopacity="0"
     inkscape:pagecheckerboard="0"
     inkscape:deskcolor="#505050"
     showgrid="false"
     inkscape:zoom="2.3653005"
     inkscape:cx="169.53448"
     inkscape:cy="208.43017"
     inkscape:window-width="2560"
     inkscape:window-height="1375"
     inkscape:window-x="0"
     inkscape:window-y="0"
     inkscape:window-maximized="1"
     inkscape:current-layer="g10">
    <inkscape:page
       x="0"
       y="0"
       id="page8"
       width="440"
       height="360" />
  </sodipodi:namedview>
  <g
     id="g10"
     inkscape:groupmode="layer"
     inkscape:label="Page 1"
     transform="matrix(1.3333333,0,0,-1.3333333,0,640.93333)">
    <g
       id="g5999"
       transform="matrix(0.52761675,0,0,0.52761675,12.934813,192.2869)">
      <path
         d="m 177.281,151.013 h -30.267 c -0.781,0 -1.414,-0.634 -1.414,-1.415 V 134.8 c 0,-0.781 0.633,-1.417 1.414,-1.417 h 11.807 v -18.385 c 0,0 -2.651,-0.904 -9.981,-0.904 -8.647,0 -20.727,3.16 -20.727,29.723 0,26.57 12.579,30.065 24.388,30.065 10.223,0 14.626,-1.799 17.429,-2.667 0.881,-0.27 1.695,0.607 1.695,1.389 l 3.376,14.297 c 0,0.367 -0.124,0.806 -0.54,1.105 -1.138,0.812 -8.081,4.697 -25.621,4.697 -20.205,0 -40.932,-8.596 -40.932,-49.922 0,-41.326 23.73,-47.4841 43.727,-47.4841 16.557,0 26.601,7.0751 26.601,7.0751 0.414,0.229 0.459,0.808 0.459,1.072 v 46.154 c 0,0.781 -0.633,1.415 -1.414,1.415"
         style="fill:#ffffff;fill-opacity:1;fill-rule:nonzero;stroke:none;stroke-width:0.1"
         id="path16" />
      <path
         d="m 333.265,187.751 c 0,0.788 -0.624,1.423 -1.406,1.423 h -17.042 c -0.778,0 -1.411,-0.635 -1.411,-1.423 0,-0.003 0.005,-32.934 0.005,-32.934 h -26.565 v 32.934 c 0,0.788 -0.626,1.423 -1.406,1.423 h -17.041 c -0.775,0 -1.408,-0.635 -1.408,-1.423 V 98.5742 c 0,-0.7871 0.633,-1.4262 1.408,-1.4262 h 17.041 c 0.78,0 1.406,0.6391 1.406,1.4262 v 38.1448 h 26.565 c 0,0 -0.047,-38.142 -0.047,-38.1448 0,-0.7871 0.632,-1.4262 1.412,-1.4262 h 17.082 c 0.781,0 1.405,0.6391 1.407,1.4262 v 89.1768"
         style="fill:#ffffff;fill-opacity:1;fill-rule:nonzero;stroke:none;stroke-width:0.1"
         id="path18" />
      <path
         d="m 209.44,176.05 c 0,6.136 -4.919,11.095 -10.989,11.095 -6.064,0 -10.988,-4.959 -10.988,-11.095 0,-6.131 4.924,-11.104 10.988,-11.104 6.07,0 10.989,4.973 10.989,11.104"
         style="fill:#ffffff;fill-opacity:1;fill-rule:nonzero;stroke:none;stroke-width:0.1"
         id="path20" />
      <path
         d="m 208.222,117.386 c 0,2.285 0,41.164 0,41.164 0,0.782 -0.631,1.421 -1.41,1.421 h -16.989 c -0.779,0 -1.476,-0.804 -1.476,-1.585 0,0 0,-49.534 0,-58.977 0,-1.7328 1.08,-2.2488 2.477,-2.2488 0,0 7.252,0 15.306,0 1.68,0 2.092,0.825 2.092,2.2769 0,3.1609 0,15.5449 0,17.9489"
         style="fill:#ffffff;fill-opacity:1;fill-rule:nonzero;stroke:none;stroke-width:0.1"
         id="path22" />
      <path
         d="m 398.032,159.837 h -16.911 c -0.775,0 -1.407,-0.64 -1.407,-1.427 v -43.725 c 0,0 -4.297,-3.144 -10.395,-3.144 -6.097,0 -7.715,2.767 -7.715,8.737 0,5.979 0,38.132 0,38.132 0,0.787 -0.63,1.427 -1.407,1.427 h -17.164 c -0.774,0 -1.409,-0.64 -1.409,-1.427 0,0 0,-23.285 0,-41.018 0,-17.7361 9.884,-22.0748 23.481,-22.0748 11.156,0 20.15,6.1638 20.15,6.1638 0,0 0.428,-3.249 0.622,-3.633 0.193,-0.3839 0.698,-0.773 1.244,-0.773 l 10.919,0.0492 c 0.774,0 1.409,0.6399 1.409,1.4238 l -0.006,59.862 c 0,0.787 -0.631,1.427 -1.411,1.427"
         style="fill:#ffffff;fill-opacity:1;fill-rule:nonzero;stroke:none;stroke-width:0.1"
         id="path24" />
      <path
         d="m 437.584,111.595 c -5.866,0.178 -9.845,2.841 -9.845,2.841 v 28.24 c 0,0 3.925,2.406 8.741,2.836 6.09,0.546 11.958,-1.294 11.958,-15.822 0,-15.319 -2.648,-18.342 -10.854,-18.095 z m 6.67,50.245 c -9.605,0 -16.138,-4.285 -16.138,-4.285 v 30.196 c 0,0.788 -0.63,1.423 -1.406,1.423 h -17.091 c -0.777,0 -1.408,-0.635 -1.408,-1.423 V 98.5742 c 0,-0.7871 0.631,-1.4262 1.41,-1.4262 0.002,0 11.854,0 11.858,0 0.534,0 0.938,0.275 1.237,0.7559 0.295,0.4801 0.72,4.1131 0.72,4.1131 0,0 6.988,-6.6229 20.217,-6.6229 15.532,0 24.439,7.8779 24.439,35.3659 0,27.488 -14.226,31.08 -23.838,31.08"
         style="fill:#ffffff;fill-opacity:1;fill-rule:nonzero;stroke:none;stroke-width:0.1"
         id="path26" />
      <path
         d="m 257.202,159.979 h -12.784 c 0,0 -0.019,16.884 -0.019,16.888 0,0.64 -0.33,0.959 -1.069,0.959 h -17.42 c -0.678,0 -1.041,-0.298 -1.041,-0.949 v -17.452 c 0,0 -8.73,-2.108 -9.321,-2.277 -0.587,-0.171 -1.02,-0.713 -1.02,-1.36 v -10.967 c 0,-0.789 0.63,-1.425 1.409,-1.425 h 8.932 c 0,0 0,-11.47 0,-26.384 0,-19.5968 13.746,-21.5222 23.021,-21.5222 4.239,0 9.309,1.3622 10.146,1.6704 0.506,0.1867 0.8,0.7109 0.8,1.28 l 0.015,12.0638 c 0,0.786 -0.665,1.424 -1.413,1.424 -0.746,0 -2.651,-0.304 -4.613,-0.304 -6.28,0 -8.407,2.92 -8.407,6.699 0,3.777 -0.001,25.073 -0.001,25.073 h 12.785 c 0.779,0 1.41,0.636 1.41,1.425 v 13.737 c 0,0.787 -0.631,1.421 -1.41,1.421"
         style="fill:#ffffff;fill-opacity:1;fill-rule:nonzero;stroke:none;stroke-width:0.1"
         id="path28" />
    </g>
    <g
       id="g9634"
       transform="matrix(0.12866518,0,0,0.12866518,-286.22262,189.89441)">
      <path
         d="m 3506.09,2175.54 c -333.47,0 -603.88,-270.35 -603.88,-603.87 0,-266.81 173.03,-493.17 412.97,-573.022 30.18,-5.589 41.26,13.102 41.26,29.052 0,14.4 -0.56,61.97 -0.82,112.43 -168,-36.53 -203.45,71.25 -203.45,71.25 -27.47,69.8 -67.05,88.36 -67.05,88.36 -54.79,37.48 4.13,36.71 4.13,36.71 60.64,-4.25 92.57,-62.23 92.57,-62.23 53.86,-92.32 141.27,-65.63 175.73,-50.2 5.42,39.02 21.07,65.68 38.34,80.75 -134.13,15.27 -275.13,67.05 -275.13,298.44 0,65.93 23.59,119.8 62.22,162.09 -6.27,15.22 -26.94,76.63 5.85,159.81 0,0 50.71,16.23 166.11,-61.9 48.17,13.38 99.83,20.09 151.15,20.32 51.32,-0.23 103.02,-6.94 151.28,-20.32 115.26,78.13 165.9,61.9 165.9,61.9 32.87,-83.18 12.19,-144.59 5.92,-159.81 38.72,-42.29 62.15,-96.16 62.15,-162.09 0,-231.94 -141.27,-283.01 -275.74,-297.96 21.66,-18.74 40.96,-55.49 40.96,-111.83 0,-80.79 -0.7,-145.82 -0.7,-165.72 0,-16.07 10.87,-34.899 41.48,-28.97 239.81,79.94 412.62,306.22 412.62,572.94 0,333.52 -270.37,603.87 -603.87,603.87"
         style="fill:#ffffff;fill-opacity:1;fill-rule:evenodd;stroke:none"
         id="path7922" />
      <path
         d="m 3130.93,1308.51 c -1.33,-3.01 -6.05,-3.9 -10.35,-1.84 -4.38,1.97 -6.84,6.06 -5.42,9.07 1.3,3.09 6.03,3.94 10.4,1.89 4.39,-1.98 6.89,-6.11 5.37,-9.12 v 0"
         style="fill:#ffffff;fill-opacity:1;fill-rule:nonzero;stroke:none"
         id="path7924" />
      <path
         d="m 3155.39,1281.23 c -2.88,-2.67 -8.51,-1.43 -12.33,2.79 -3.95,4.21 -4.69,9.84 -1.77,12.55 2.97,2.67 8.43,1.42 12.39,-2.79 3.95,-4.26 4.72,-9.85 1.71,-12.55 v 0"
         style="fill:#ffffff;fill-opacity:1;fill-rule:nonzero;stroke:none"
         id="path7926" />
      <path
         d="m 3179.2,1246.45 c -3.7,-2.57 -9.75,-0.16 -13.49,5.21 -3.7,5.37 -3.7,11.81 0.08,14.39 3.75,2.58 9.71,0.26 13.5,-5.07 3.69,-5.45 3.69,-11.9 -0.09,-14.53 v 0"
         style="fill:#ffffff;fill-opacity:1;fill-rule:nonzero;stroke:none"
         id="path7928" />
      <path
         d="m 3211.82,1212.85 c -3.31,-3.65 -10.36,-2.67 -15.52,2.31 -5.28,4.87 -6.75,11.78 -3.43,15.43 3.35,3.66 10.44,2.63 15.64,-2.31 5.24,-4.86 6.84,-11.82 3.31,-15.43 v 0"
         style="fill:#ffffff;fill-opacity:1;fill-rule:nonzero;stroke:none"
         id="path7930" />
      <path
         d="m 3256.82,1193.34 c -1.46,-4.73 -8.25,-6.88 -15.09,-4.87 -6.83,2.07 -11.3,7.61 -9.92,12.39 1.42,4.76 8.24,7 15.13,4.85 6.82,-2.06 11.3,-7.56 9.88,-12.37 v 0"
         style="fill:#ffffff;fill-opacity:1;fill-rule:nonzero;stroke:none"
         id="path7932" />
      <path
         d="m 3306.24,1189.72 c 0.17,-4.98 -5.63,-9.11 -12.81,-9.19 -7.22,-0.17 -13.06,3.86 -13.14,8.76 0,5.03 5.67,9.12 12.89,9.24 7.18,0.14 13.06,-3.86 13.06,-8.81 v 0"
         style="fill:#ffffff;fill-opacity:1;fill-rule:nonzero;stroke:none"
         id="path7934" />
      <path
         d="m 3352.23,1197.55 c 0.86,-4.86 -4.13,-9.85 -11.26,-11.17 -7.01,-1.29 -13.5,1.71 -14.39,6.53 -0.87,4.98 4.21,9.97 11.21,11.26 7.14,1.24 13.53,-1.68 14.44,-6.62 v 0"
         style="fill:#ffffff;fill-opacity:1;fill-rule:nonzero;stroke:none"
         id="path7936" />
    </g>
  </g>
</svg>
