<?xml version="1.0" encoding="UTF-8" standalone="no"?>
<svg
   id="mdn-logo"
   x="0px"
   y="0px"
   viewBox="0 0 440 360.00001"
   xml:space="preserve"
   version="1.1"
   sodipodi:docname="MDN_Web_Docs_logo.svg"
   width="440"
   height="360"
   inkscape:version="1.1.1 (3bf5ae0d25, 2021-09-20)"
   xmlns:inkscape="http://www.inkscape.org/namespaces/inkscape"
   xmlns:sodipodi="http://sodipodi.sourceforge.net/DTD/sodipodi-0.dtd"
   xmlns="http://www.w3.org/2000/svg"
   xmlns:svg="http://www.w3.org/2000/svg"><defs
     id="defs27" /><sodipodi:namedview
     id="namedview25"
     pagecolor="#505050"
     bordercolor="#eeeeee"
     borderopacity="1"
     inkscape:showpageshadow="0"
     inkscape:pageopacity="0"
     inkscape:pagecheckerboard="0"
     inkscape:deskcolor="#505050"
     showgrid="false"
     inkscape:zoom="0.99007217"
     inkscape:cx="156.55424"
     inkscape:cy="126.75844"
     inkscape:window-width="1600"
     inkscape:window-height="835"
     inkscape:window-x="0"
     inkscape:window-y="0"
     inkscape:window-maximized="1"
     inkscape:current-layer="g22"
     inkscape:pageshadow="0" /><style
     type="text/css"
     id="style2">
  .logo-m{fill:#1870f0;}
  .logo-text{fill:#15141a;}
</style><g
     class="logo-m"
     id="g14"
     transform="matrix(1.1754402,0,0,1.1754402,7.6722044,90.778105)"><path
       d="M 40.3,0 11.7,92.1 H 0 L 28.5,0 Z"
       id="path4" /><path
       d="M 50.7,0 V 92.1 H 40.3 V 0 Z"
       id="path6" /><path
       d="M 101.4,0 V 92.1 H 91 V 0 Z"
       id="path8" /><path
       d="M 91,0 62.5,92.1 H 50.8 L 79.3,0 Z"
       id="path10" /><path
       d="m 294,95.4 h 67 v 8.8 h -67 z"
       id="path12" /></g><g
     class="logo-text"
     id="g22"
     transform="matrix(1.1754402,0,0,1.1754402,7.6722044,90.778105)"><path
       d="m 198.7,72.8 h -17.1 v -5.5 h 3.8 V 51.5 c 0,-3.7 -0.7,-6.3 -2.1,-7.9 -1.4,-1.6 -3.3,-2.3 -5.7,-2.3 -3.2,0 -5.6,1.1 -7.2,3.4 -1.6,2.3 -2.4,4.6 -2.5,6.9 v 15.6 h 6 v 5.5 h -17.1 v -5.5 h 3.8 V 51.5 c 0,-3.8 -0.7,-6.4 -2.1,-7.9 -1.4,-1.5 -3.3,-2.3 -5.6,-2.3 -3.2,0 -5.5,1.1 -7.2,3.3 -1.6,2.2 -2.4,4.5 -2.5,6.9 v 15.8 h 6.9 v 5.5 h -20.2 v -5.5 h 6 V 42 h -6.1 v -5.6 h 13.4 v 6.4 c 1.2,-2.1 2.7,-3.8 4.7,-5.2 2,-1.3 4.4,-2 7.3,-2 2.8,0 5.3,0.7 7.5,2.1 2.2,1.4 3.7,3.5 4.5,6.4 1.1,-2.5 2.7,-4.5 4.9,-6.1 2.2,-1.6 4.8,-2.4 7.9,-2.4 3.5,0 6.5,1.1 8.9,3.3 2.4,2.2 3.7,5.6 3.7,10.2 v 18.2 h 6.1 z"
       id="path16"
       style="fill:#ffffff;fill-opacity:1" /><path
       d="M 241.2,72.8 H 228 v -7.2 c -1.2,2.2 -2.8,4.1 -4.9,5.6 -2.1,1.6 -4.8,2.4 -8.3,2.4 -4.8,0 -8.7,-1.6 -11.6,-4.9 -2.9,-3.2 -4.3,-7.7 -4.3,-13.3 0,-5 1.3,-9.6 4,-13.7 2.6,-4.1 6.9,-6.2 12.8,-6.2 5.7,0 9.8,2.2 12.3,6.5 V 22.3 h -8.6 v -5.6 h 15.8 v 50.6 h 6 z M 227.9,56 v -4.4 c -0.1,-3 -1.2,-5.5 -3.2,-7.3 -2,-1.8 -4.4,-2.8 -7.2,-2.8 -3.6,0 -6.3,1.3 -8.2,3.9 -1.9,2.6 -2.8,5.8 -2.8,9.6 0,4.1 1,7.3 3,9.5 2,2.2 4.5,3.3 7.4,3.3 3.2,0 5.8,-1.3 7.8,-3.8 2.1,-2.6 3.1,-5.3 3.2,-8 z"
       id="path18"
       style="fill:#ffffff;fill-opacity:1" /><path
       d="m 286.4,72.8 h -19.3 v -5.5 h 6 V 51.5 c 0,-3.7 -0.7,-6.3 -2.2,-7.9 -1.4,-1.6 -3.4,-2.3 -5.7,-2.3 -3.1,0 -5.6,1 -7.4,3 -1.8,2 -2.8,4.4 -2.9,7 v 15.9 h 6 v 5.5 h -19.3 v -5.5 h 6 V 42 h -6.2 V 36.4 H 255 v 6.2 c 2.6,-4.6 6.8,-6.9 12.7,-6.9 3.6,0 6.7,1.1 9.2,3.3 2.5,2.2 3.7,5.6 3.7,10.2 v 18.2 h 6 v 5.4 z"
       id="path20"
       style="fill:#ffffff;fill-opacity:1" /></g></svg>
